<svg xmlns="http://www.w3.org/2000/svg" width="300" viewBox="0 0 300 225" height="225" version="1.0"><defs><clipPath id="a"><path d="M 117 34.125 L 183 34.125 L 183 82 L 117 82 Z M 117 34.125"/></clipPath><clipPath id="b"><path d="M 117 87 L 183 87 L 183 175.875 L 117 175.875 Z M 117 87"/></clipPath><clipPath id="c"><path d="M 93.707031 87 L 112 87 L 112 135 L 93.707031 135 Z M 93.707031 87"/></clipPath></defs><g clip-path="url(#a)"><path fill="#4CAF50" d="M 165.371094 50.375 L 170.332031 38.832031 C 170.488281 38.472656 170.570312 38.097656 170.574219 37.707031 C 170.582031 37.316406 170.515625 36.941406 170.371094 36.578125 C 170.226562 36.214844 170.019531 35.890625 169.75 35.613281 C 169.476562 35.332031 169.164062 35.113281 168.804688 34.957031 C 168.445312 34.800781 168.070312 34.71875 167.679688 34.710938 C 167.289062 34.703125 166.914062 34.773438 166.550781 34.914062 C 166.183594 35.058594 165.863281 35.265625 165.582031 35.535156 C 165.300781 35.804688 165.082031 36.121094 164.925781 36.476562 L 159.96875 48.070312 C 156.722656 47.007812 153.390625 46.476562 149.972656 46.476562 C 146.554688 46.476562 143.21875 47.007812 139.972656 48.070312 L 134.988281 36.476562 C 134.832031 36.121094 134.613281 35.804688 134.332031 35.535156 C 134.050781 35.261719 133.726562 35.054688 133.363281 34.910156 C 133 34.769531 132.621094 34.699219 132.230469 34.707031 C 131.839844 34.714844 131.464844 34.796875 131.105469 34.953125 C 130.746094 35.109375 130.433594 35.328125 130.160156 35.609375 C 129.886719 35.890625 129.679688 36.210938 129.539062 36.574219 C 129.394531 36.941406 129.328125 37.316406 129.335938 37.707031 C 129.34375 38.097656 129.425781 38.472656 129.582031 38.832031 L 134.546875 50.398438 C 133.269531 51.089844 132.042969 51.863281 130.871094 52.714844 C 129.695312 53.570312 128.585938 54.5 127.539062 55.503906 C 126.488281 56.503906 125.511719 57.574219 124.609375 58.710938 C 123.703125 59.84375 122.878906 61.035156 122.136719 62.277344 C 121.390625 63.523438 120.734375 64.8125 120.164062 66.148438 C 119.59375 67.480469 119.113281 68.847656 118.726562 70.242188 C 118.339844 71.640625 118.050781 73.058594 117.855469 74.496094 C 117.65625 75.933594 117.558594 77.375 117.558594 78.828125 C 117.558594 79.214844 117.632812 79.589844 117.78125 79.953125 C 117.933594 80.3125 118.144531 80.628906 118.421875 80.90625 C 118.695312 81.179688 119.015625 81.394531 119.375 81.542969 C 119.738281 81.691406 120.113281 81.765625 120.503906 81.765625 L 179.410156 81.765625 C 179.800781 81.765625 180.175781 81.691406 180.535156 81.542969 C 180.898438 81.394531 181.214844 81.179688 181.492188 80.90625 C 181.769531 80.628906 181.980469 80.3125 182.128906 79.953125 C 182.28125 79.589844 182.355469 79.214844 182.355469 78.828125 C 182.355469 77.375 182.257812 75.929688 182.0625 74.492188 C 181.867188 73.054688 181.578125 71.636719 181.191406 70.238281 C 180.804688 68.839844 180.328125 67.472656 179.757812 66.136719 C 179.1875 64.804688 178.53125 63.511719 177.785156 62.265625 C 177.042969 61.019531 176.21875 59.828125 175.3125 58.695312 C 174.410156 57.558594 173.433594 56.488281 172.382812 55.484375 C 171.335938 54.480469 170.222656 53.550781 169.050781 52.695312 C 167.875 51.839844 166.648438 51.066406 165.371094 50.375 Z M 165.371094 50.375"/></g><g clip-path="url(#b)"><path fill="#4CAF50" d="M 179.410156 87.648438 L 120.503906 87.648438 C 120.113281 87.648438 119.738281 87.722656 119.375 87.871094 C 119.015625 88.023438 118.695312 88.234375 118.421875 88.511719 C 118.144531 88.785156 117.933594 89.105469 117.78125 89.464844 C 117.632812 89.824219 117.558594 90.199219 117.558594 90.589844 L 117.558594 137.644531 C 117.558594 138.484375 117.628906 139.320312 117.773438 140.148438 C 117.917969 140.976562 118.128906 141.789062 118.410156 142.582031 C 118.695312 143.375 119.042969 144.136719 119.457031 144.867188 C 119.871094 145.601562 120.34375 146.292969 120.875 146.945312 C 121.410156 147.597656 121.992188 148.199219 122.628906 148.75 C 123.265625 149.300781 123.945312 149.796875 124.664062 150.230469 C 125.386719 150.664062 126.140625 151.035156 126.925781 151.34375 C 127.707031 151.648438 128.515625 151.886719 129.339844 152.054688 L 129.339844 167.050781 C 129.339844 167.632812 129.394531 168.207031 129.507812 168.773438 C 129.621094 169.339844 129.789062 169.894531 130.011719 170.429688 C 130.234375 170.964844 130.507812 171.472656 130.828125 171.953125 C 131.152344 172.4375 131.515625 172.882812 131.925781 173.289062 C 132.335938 173.699219 132.785156 174.066406 133.265625 174.386719 C 133.75 174.710938 134.257812 174.980469 134.792969 175.203125 C 135.328125 175.425781 135.882812 175.59375 136.453125 175.707031 C 137.019531 175.820312 137.59375 175.875 138.175781 175.875 C 138.753906 175.875 139.328125 175.820312 139.898438 175.707031 C 140.46875 175.59375 141.019531 175.425781 141.554688 175.203125 C 142.09375 174.980469 142.601562 174.710938 143.082031 174.386719 C 143.566406 174.066406 144.011719 173.699219 144.421875 173.289062 C 144.832031 172.882812 145.199219 172.4375 145.523438 171.953125 C 145.84375 171.472656 146.117188 170.964844 146.339844 170.429688 C 146.558594 169.894531 146.726562 169.339844 146.839844 168.773438 C 146.953125 168.207031 147.011719 167.632812 147.011719 167.050781 L 147.011719 152.347656 L 152.902344 152.347656 L 152.902344 167.050781 C 152.902344 167.632812 152.957031 168.207031 153.070312 168.773438 C 153.183594 169.339844 153.351562 169.894531 153.574219 170.429688 C 153.796875 170.964844 154.066406 171.472656 154.390625 171.953125 C 154.714844 172.4375 155.078125 172.882812 155.488281 173.289062 C 155.898438 173.699219 156.347656 174.066406 156.828125 174.386719 C 157.3125 174.710938 157.820312 174.980469 158.355469 175.203125 C 158.890625 175.425781 159.445312 175.59375 160.011719 175.707031 C 160.582031 175.820312 161.15625 175.875 161.738281 175.875 C 162.316406 175.875 162.890625 175.820312 163.460938 175.707031 C 164.03125 175.59375 164.582031 175.425781 165.117188 175.203125 C 165.65625 174.980469 166.164062 174.710938 166.644531 174.386719 C 167.128906 174.066406 167.574219 173.699219 167.984375 173.289062 C 168.394531 172.882812 168.761719 172.4375 169.085938 171.953125 C 169.40625 171.472656 169.679688 170.964844 169.902344 170.429688 C 170.121094 169.894531 170.289062 169.339844 170.402344 168.773438 C 170.515625 168.207031 170.574219 167.632812 170.574219 167.050781 L 170.574219 152.054688 C 171.398438 151.886719 172.203125 151.648438 172.988281 151.34375 C 173.773438 151.035156 174.523438 150.667969 175.246094 150.230469 C 175.96875 149.796875 176.644531 149.304688 177.28125 148.75 C 177.917969 148.199219 178.503906 147.597656 179.035156 146.945312 C 179.566406 146.296875 180.039062 145.601562 180.453125 144.871094 C 180.867188 144.136719 181.21875 143.375 181.5 142.582031 C 181.78125 141.789062 181.996094 140.980469 182.140625 140.148438 C 182.28125 139.320312 182.355469 138.484375 182.355469 137.644531 L 182.355469 90.589844 C 182.355469 90.199219 182.28125 89.824219 182.128906 89.464844 C 181.980469 89.105469 181.769531 88.785156 181.492188 88.511719 C 181.214844 88.234375 180.898438 88.023438 180.535156 87.871094 C 180.175781 87.722656 179.800781 87.648438 179.410156 87.648438 Z M 179.410156 87.648438"/></g><path fill="#FAFAFA" d="M 141.121094 67.0625 C 141.121094 67.453125 141.046875 67.828125 140.894531 68.1875 C 140.746094 68.546875 140.535156 68.867188 140.257812 69.140625 C 139.980469 69.417969 139.664062 69.628906 139.300781 69.78125 C 138.941406 69.929688 138.566406 70.003906 138.175781 70.003906 C 137.785156 70.003906 137.410156 69.929688 137.046875 69.78125 C 136.6875 69.628906 136.367188 69.417969 136.09375 69.140625 C 135.816406 68.867188 135.601562 68.546875 135.453125 68.1875 C 135.304688 67.828125 135.230469 67.453125 135.230469 67.0625 C 135.230469 66.671875 135.304688 66.296875 135.453125 65.9375 C 135.601562 65.578125 135.816406 65.257812 136.09375 64.984375 C 136.367188 64.707031 136.6875 64.496094 137.046875 64.347656 C 137.410156 64.195312 137.785156 64.121094 138.175781 64.121094 C 138.566406 64.121094 138.941406 64.195312 139.300781 64.347656 C 139.664062 64.496094 139.980469 64.707031 140.257812 64.984375 C 140.535156 65.257812 140.746094 65.578125 140.894531 65.9375 C 141.046875 66.296875 141.121094 66.671875 141.121094 67.0625 Z M 141.121094 67.0625"/><path fill="#FAFAFA" d="M 164.683594 67.0625 C 164.683594 67.453125 164.609375 67.828125 164.457031 68.1875 C 164.308594 68.546875 164.097656 68.867188 163.820312 69.140625 C 163.542969 69.417969 163.226562 69.628906 162.863281 69.78125 C 162.503906 69.929688 162.128906 70.003906 161.738281 70.003906 C 161.347656 70.003906 160.972656 69.929688 160.609375 69.78125 C 160.25 69.628906 159.929688 69.417969 159.65625 69.140625 C 159.378906 68.867188 159.164062 68.546875 159.015625 68.1875 C 158.867188 67.828125 158.792969 67.453125 158.792969 67.0625 C 158.792969 66.671875 158.867188 66.296875 159.015625 65.9375 C 159.164062 65.578125 159.378906 65.257812 159.65625 64.984375 C 159.929688 64.707031 160.25 64.496094 160.609375 64.347656 C 160.972656 64.195312 161.347656 64.121094 161.738281 64.121094 C 162.128906 64.121094 162.503906 64.195312 162.863281 64.347656 C 163.226562 64.496094 163.542969 64.707031 163.820312 64.984375 C 164.097656 65.257812 164.308594 65.578125 164.457031 65.9375 C 164.609375 66.296875 164.683594 66.671875 164.683594 67.0625 Z M 164.683594 67.0625"/><path fill="#81C784" d="M 197.082031 87.648438 C 196.5 87.648438 195.925781 87.707031 195.355469 87.820312 C 194.789062 87.929688 194.234375 88.097656 193.699219 88.320312 C 193.164062 88.542969 192.652344 88.8125 192.171875 89.136719 C 191.691406 89.457031 191.242188 89.824219 190.832031 90.234375 C 190.421875 90.640625 190.054688 91.089844 189.734375 91.570312 C 189.410156 92.050781 189.140625 92.558594 188.917969 93.09375 C 188.695312 93.628906 188.527344 94.183594 188.414062 94.75 C 188.300781 95.320312 188.246094 95.890625 188.246094 96.472656 L 188.246094 125.878906 C 188.246094 126.460938 188.300781 127.035156 188.414062 127.601562 C 188.527344 128.167969 188.695312 128.722656 188.917969 129.257812 C 189.140625 129.792969 189.410156 130.300781 189.734375 130.78125 C 190.054688 131.261719 190.421875 131.710938 190.832031 132.117188 C 191.242188 132.527344 191.6875 132.894531 192.171875 133.214844 C 192.652344 133.539062 193.164062 133.808594 193.699219 134.03125 C 194.234375 134.253906 194.789062 134.421875 195.355469 134.535156 C 195.925781 134.644531 196.5 134.703125 197.082031 134.703125 C 197.660156 134.703125 198.234375 134.644531 198.804688 134.535156 C 199.375 134.421875 199.925781 134.253906 200.460938 134.03125 C 201 133.808594 201.507812 133.539062 201.988281 133.214844 C 202.472656 132.894531 202.917969 132.527344 203.328125 132.117188 C 203.738281 131.710938 204.105469 131.261719 204.425781 130.78125 C 204.75 130.300781 205.023438 129.792969 205.242188 129.257812 C 205.464844 128.722656 205.632812 128.167969 205.746094 127.601562 C 205.859375 127.035156 205.917969 126.460938 205.917969 125.878906 L 205.917969 96.472656 C 205.917969 95.890625 205.859375 95.320312 205.746094 94.75 C 205.632812 94.183594 205.464844 93.628906 205.242188 93.09375 C 205.023438 92.558594 204.75 92.050781 204.425781 91.570312 C 204.105469 91.089844 203.738281 90.640625 203.328125 90.234375 C 202.917969 89.824219 202.472656 89.457031 201.988281 89.136719 C 201.507812 88.8125 201 88.542969 200.460938 88.320312 C 199.925781 88.097656 199.375 87.929688 198.804688 87.820312 C 198.234375 87.707031 197.660156 87.648438 197.082031 87.648438 Z M 197.082031 87.648438"/><g clip-path="url(#c)"><path fill="#81C784" d="M 102.832031 87.648438 C 102.25 87.648438 101.675781 87.707031 101.109375 87.820312 C 100.539062 87.929688 99.984375 88.097656 99.449219 88.320312 C 98.914062 88.542969 98.40625 88.8125 97.921875 89.136719 C 97.441406 89.457031 96.992188 89.824219 96.582031 90.234375 C 96.171875 90.640625 95.808594 91.089844 95.484375 91.570312 C 95.164062 92.050781 94.890625 92.558594 94.667969 93.09375 C 94.445312 93.628906 94.277344 94.183594 94.164062 94.75 C 94.050781 95.320312 93.996094 95.890625 93.996094 96.472656 L 93.996094 125.878906 C 93.996094 126.460938 94.050781 127.035156 94.164062 127.601562 C 94.277344 128.167969 94.445312 128.722656 94.667969 129.257812 C 94.890625 129.792969 95.164062 130.300781 95.484375 130.78125 C 95.808594 131.261719 96.171875 131.710938 96.582031 132.117188 C 96.992188 132.527344 97.441406 132.894531 97.921875 133.214844 C 98.40625 133.539062 98.914062 133.808594 99.449219 134.03125 C 99.984375 134.253906 100.539062 134.421875 101.109375 134.535156 C 101.675781 134.644531 102.25 134.703125 102.832031 134.703125 C 103.410156 134.703125 103.988281 134.644531 104.554688 134.535156 C 105.125 134.421875 105.675781 134.253906 106.214844 134.03125 C 106.75 133.808594 107.257812 133.539062 107.742188 133.214844 C 108.222656 132.894531 108.667969 132.527344 109.078125 132.117188 C 109.488281 131.710938 109.855469 131.261719 110.179688 130.78125 C 110.5 130.300781 110.773438 129.792969 110.996094 129.257812 C 111.21875 128.722656 111.382812 128.167969 111.496094 127.601562 C 111.609375 127.035156 111.667969 126.460938 111.667969 125.878906 L 111.667969 96.472656 C 111.667969 95.890625 111.609375 95.320312 111.496094 94.75 C 111.382812 94.183594 111.21875 93.628906 110.996094 93.09375 C 110.773438 92.558594 110.5 92.050781 110.179688 91.570312 C 109.855469 91.089844 109.488281 90.640625 109.078125 90.234375 C 108.667969 89.824219 108.222656 89.457031 107.742188 89.136719 C 107.257812 88.8125 106.75 88.542969 106.214844 88.320312 C 105.675781 88.097656 105.125 87.929688 104.554688 87.820312 C 103.988281 87.707031 103.410156 87.648438 102.832031 87.648438 Z M 102.832031 87.648438"/></g></svg>