<?xml version="1.0" encoding="UTF-8"?><svg xmlns="http://www.w3.org/2000/svg" xmlns:xlink="http://www.w3.org/1999/xlink" contentScriptType="text/ecmascript" width="375pt" zoomAndPan="magnify" contentStyleType="text/css" viewBox="0 0 375 374.999991" height="374.999991pt" preserveAspectRatio="xMidYMid meet" version="1.2"><defs><clipPath xml:id="clip1" id="clip1"><path d="M 2.789062 2.789062 L 374.578125 2.789062 L 374.578125 374.578125 L 2.789062 374.578125 Z M 2.789062 2.789062 "/></clipPath></defs><g xml:id="surface1" id="surface1"><g clip-rule="nonzero" clip-path="url(#clip1)"><path style=" stroke:none;fill-rule:nonzero;fill:rgb(23.139954%,34.899902%,59.609985%);fill-opacity:1;" d="M 58.558594 2.789062 L 318.808594 2.789062 C 320.636719 2.789062 322.457031 2.878906 324.277344 3.058594 C 326.09375 3.238281 327.898438 3.503906 329.6875 3.859375 C 331.480469 4.214844 333.25 4.660156 335 5.191406 C 336.746094 5.71875 338.464844 6.335938 340.152344 7.035156 C 341.839844 7.734375 343.488281 8.511719 345.097656 9.375 C 346.710938 10.234375 348.273438 11.171875 349.792969 12.1875 C 351.3125 13.203125 352.777344 14.289062 354.1875 15.449219 C 355.601562 16.605469 356.953125 17.832031 358.242188 19.121094 C 359.535156 20.414062 360.761719 21.765625 361.917969 23.179688 C 363.078125 24.589844 364.164062 26.054688 365.179688 27.574219 C 366.195312 29.09375 367.132812 30.65625 367.992188 32.269531 C 368.855469 33.878906 369.632812 35.527344 370.332031 37.214844 C 371.03125 38.902344 371.644531 40.621094 372.175781 42.367188 C 372.707031 44.117188 373.148438 45.886719 373.507812 47.675781 C 373.863281 49.46875 374.128906 51.273438 374.308594 53.089844 C 374.488281 54.910156 374.578125 56.730469 374.578125 58.558594 L 374.578125 318.808594 C 374.578125 320.636719 374.488281 322.457031 374.308594 324.277344 C 374.128906 326.09375 373.863281 327.898438 373.507812 329.6875 C 373.148438 331.480469 372.707031 333.25 372.175781 335 C 371.644531 336.746094 371.03125 338.464844 370.332031 340.152344 C 369.632812 341.839844 368.855469 343.488281 367.992188 345.097656 C 367.132812 346.710938 366.195312 348.273438 365.179688 349.792969 C 364.164062 351.3125 363.078125 352.777344 361.917969 354.1875 C 360.761719 355.601562 359.535156 356.953125 358.242188 358.242188 C 356.953125 359.535156 355.601562 360.761719 354.1875 361.917969 C 352.777344 363.078125 351.3125 364.164062 349.792969 365.179688 C 348.273438 366.195312 346.710938 367.132812 345.097656 367.992188 C 343.488281 368.855469 341.839844 369.632812 340.152344 370.332031 C 338.464844 371.03125 336.746094 371.644531 335 372.175781 C 333.25 372.707031 331.480469 373.148438 329.6875 373.507812 C 327.898438 373.863281 326.09375 374.128906 324.277344 374.308594 C 322.457031 374.488281 320.636719 374.578125 318.808594 374.578125 L 58.558594 374.578125 C 56.730469 374.578125 54.910156 374.488281 53.089844 374.308594 C 51.273438 374.128906 49.46875 373.863281 47.675781 373.507812 C 45.886719 373.148438 44.117188 372.707031 42.367188 372.175781 C 40.621094 371.644531 38.902344 371.03125 37.214844 370.332031 C 35.527344 369.632812 33.878906 368.855469 32.269531 367.992188 C 30.65625 367.132812 29.09375 366.195312 27.574219 365.179688 C 26.054688 364.164062 24.589844 363.078125 23.179688 361.917969 C 21.765625 360.761719 20.414062 359.535156 19.121094 358.242188 C 17.832031 356.953125 16.605469 355.601562 15.449219 354.1875 C 14.289062 352.777344 13.203125 351.3125 12.1875 349.792969 C 11.171875 348.273438 10.234375 346.710938 9.375 345.097656 C 8.511719 343.488281 7.734375 341.839844 7.035156 340.152344 C 6.335938 338.464844 5.71875 336.746094 5.191406 335 C 4.660156 333.25 4.214844 331.480469 3.859375 329.6875 C 3.503906 327.898438 3.238281 326.09375 3.058594 324.277344 C 2.878906 322.457031 2.789062 320.636719 2.789062 318.808594 L 2.789062 58.558594 C 2.789062 56.730469 2.878906 54.910156 3.058594 53.089844 C 3.238281 51.273438 3.503906 49.46875 3.859375 47.675781 C 4.214844 45.886719 4.660156 44.117188 5.191406 42.367188 C 5.71875 40.621094 6.335938 38.902344 7.035156 37.214844 C 7.734375 35.527344 8.511719 33.878906 9.375 32.269531 C 10.234375 30.65625 11.171875 29.09375 12.1875 27.574219 C 13.203125 26.054688 14.289062 24.589844 15.449219 23.179688 C 16.605469 21.765625 17.832031 20.414062 19.121094 19.121094 C 20.414062 17.832031 21.765625 16.605469 23.179688 15.449219 C 24.589844 14.289062 26.054688 13.203125 27.574219 12.1875 C 29.09375 11.171875 30.65625 10.234375 32.269531 9.375 C 33.878906 8.511719 35.527344 7.734375 37.214844 7.035156 C 38.902344 6.335938 40.621094 5.71875 42.367188 5.191406 C 44.117188 4.660156 45.886719 4.214844 47.675781 3.859375 C 49.46875 3.503906 51.273438 3.238281 53.089844 3.058594 C 54.910156 2.878906 56.730469 2.789062 58.558594 2.789062 Z M 58.558594 2.789062 "/></g><path style=" stroke:none;fill-rule:nonzero;fill:rgb(100%,100%,100%);fill-opacity:1;" d="M 211.195312 333.914062 L 211.195312 116.792969 C 211.195312 101.546875 215.550781 91.378906 236.609375 91.378906 L 264.203125 91.378906 L 264.203125 45.632812 C 259.121094 44.90625 243.144531 43.453125 224.265625 43.453125 C 185.050781 43.453125 158.183594 67.417969 158.183594 111.710938 L 158.183594 333.914062 M 262.023438 149.472656 L 113.164062 149.472656 L 113.164062 201.753906 L 255.488281 201.753906 "/></g></svg>