<svg width="589" height="562" viewBox="0 0 589 562" fill="none" xmlns="http://www.w3.org/2000/svg">
<path d="M19.3873 506.64C17.334 506.64 15.7607 507.267 14.6673 508.52C13.574 509.773 13.0273 511.547 13.0273 513.84C13.0273 516.16 13.6273 517.947 14.8273 519.2C16.054 520.453 17.694 521.08 19.7473 521.08C20.8407 521.08 21.7607 520.933 22.5073 520.64C23.2807 520.347 24.014 520.013 24.7073 519.64C25.1607 520.013 25.5073 520.467 25.7473 521C26.014 521.507 26.1473 522.107 26.1473 522.8C26.1473 523.893 25.534 524.827 24.3073 525.6C23.1073 526.347 21.2673 526.72 18.7873 526.72C17.0007 526.72 15.3207 526.467 13.7473 525.96C12.174 525.453 10.8007 524.68 9.62734 523.64C8.454 522.573 7.52067 521.24 6.82734 519.64C6.16067 518.013 5.82734 516.08 5.82734 513.84C5.82734 511.76 6.14734 509.933 6.78734 508.36C7.454 506.76 8.34734 505.413 9.46734 504.32C10.614 503.227 11.9473 502.4 13.4673 501.84C14.9873 501.28 16.614 501 18.3473 501C20.8007 501 22.694 501.4 24.0273 502.2C25.3873 503 26.0673 504.027 26.0673 505.28C26.0673 505.973 25.894 506.573 25.5473 507.08C25.2007 507.587 24.8007 507.987 24.3473 508.28C23.654 507.827 22.9073 507.44 22.1073 507.12C21.334 506.8 20.4273 506.64 19.3873 506.64ZM49.3711 516.28C49.3711 517.933 49.1178 519.413 48.6111 520.72C48.1044 522 47.3844 523.08 46.4511 523.96C45.5444 524.84 44.4511 525.507 43.1711 525.96C41.8911 526.413 40.4644 526.64 38.8911 526.64C37.3178 526.64 35.8911 526.4 34.6111 525.92C33.3311 525.44 32.2244 524.76 31.2911 523.88C30.3844 522.973 29.6778 521.88 29.1711 520.6C28.6644 519.32 28.4111 517.88 28.4111 516.28C28.4111 514.707 28.6644 513.28 29.1711 512C29.6778 510.72 30.3844 509.64 31.2911 508.76C32.2244 507.853 33.3311 507.16 34.6111 506.68C35.8911 506.2 37.3178 505.96 38.8911 505.96C40.4644 505.96 41.8911 506.213 43.1711 506.72C44.4511 507.2 45.5444 507.893 46.4511 508.8C47.3844 509.68 48.1044 510.76 48.6111 512.04C49.1178 513.32 49.3711 514.733 49.3711 516.28ZM35.3711 516.28C35.3711 517.907 35.6778 519.16 36.2911 520.04C36.9311 520.893 37.8111 521.32 38.9311 521.32C40.0511 521.32 40.9044 520.88 41.4911 520C42.1044 519.12 42.4111 517.88 42.4111 516.28C42.4111 514.68 42.1044 513.453 41.4911 512.6C40.8778 511.72 40.0111 511.28 38.8911 511.28C37.7711 511.28 36.9044 511.72 36.2911 512.6C35.6778 513.453 35.3711 514.68 35.3711 516.28ZM52.2486 516.28C52.2486 514.52 52.5153 513 53.0486 511.72C53.5819 510.413 54.3153 509.333 55.2486 508.48C56.2086 507.627 57.3153 507 58.5686 506.6C59.8486 506.173 61.2219 505.96 62.6886 505.96C63.2219 505.96 63.7419 506.013 64.2486 506.12C64.7553 506.2 65.1686 506.307 65.4886 506.44V499.96C65.7553 499.88 66.1819 499.8 66.7686 499.72C67.3553 499.613 67.9553 499.56 68.5686 499.56C69.1553 499.56 69.6753 499.6 70.1286 499.68C70.6086 499.76 71.0086 499.92 71.3286 500.16C71.6486 500.4 71.8886 500.733 72.0486 501.16C72.2086 501.56 72.2886 502.093 72.2886 502.76V521.72C72.2886 522.973 71.7019 523.973 70.5286 524.72C69.7553 525.227 68.7553 525.667 67.5286 526.04C66.3019 526.44 64.8886 526.64 63.2886 526.64C61.5553 526.64 59.9953 526.4 58.6086 525.92C57.2486 525.44 56.0886 524.747 55.1286 523.84C54.1953 522.933 53.4753 521.853 52.9686 520.6C52.4886 519.32 52.2486 517.88 52.2486 516.28ZM63.6086 511.28C62.1686 511.28 61.0619 511.693 60.2886 512.52C59.5153 513.347 59.1286 514.6 59.1286 516.28C59.1286 517.933 59.4886 519.187 60.2086 520.04C60.9286 520.867 61.9686 521.28 63.3286 521.28C63.8086 521.28 64.2353 521.213 64.6086 521.08C65.0086 520.92 65.3153 520.747 65.5286 520.56V511.76C64.9953 511.44 64.3553 511.28 63.6086 511.28ZM87.2061 526.64C85.6328 526.64 84.1661 526.427 82.8061 526C81.4728 525.547 80.2994 524.88 79.2861 524C78.2994 523.12 77.5128 522.013 76.9261 520.68C76.3661 519.347 76.0861 517.787 76.0861 516C76.0861 514.24 76.3661 512.733 76.9261 511.48C77.5128 510.2 78.2728 509.16 79.2061 508.36C80.1394 507.533 81.2061 506.933 82.4061 506.56C83.6061 506.16 84.8328 505.96 86.0861 505.96C87.4994 505.96 88.7794 506.173 89.9261 506.6C91.0994 507.027 92.0994 507.613 92.9261 508.36C93.7794 509.107 94.4328 510 94.8861 511.04C95.3661 512.08 95.6061 513.213 95.6061 514.44C95.6061 515.347 95.3528 516.04 94.8461 516.52C94.3394 517 93.6328 517.307 92.7261 517.44L82.8461 518.92C83.1394 519.8 83.7394 520.467 84.6461 520.92C85.5528 521.347 86.5928 521.56 87.7661 521.56C88.8594 521.56 89.8861 521.427 90.8461 521.16C91.8328 520.867 92.6328 520.533 93.2461 520.16C93.6728 520.427 94.0328 520.8 94.3261 521.28C94.6194 521.76 94.7661 522.267 94.7661 522.8C94.7661 524 94.2061 524.893 93.0861 525.48C92.2328 525.933 91.2728 526.24 90.2061 526.4C89.1394 526.56 88.1394 526.64 87.2061 526.64ZM86.0861 510.92C85.4461 510.92 84.8861 511.027 84.4061 511.24C83.9528 511.453 83.5794 511.733 83.2861 512.08C82.9928 512.4 82.7661 512.773 82.6061 513.2C82.4728 513.6 82.3928 514.013 82.3661 514.44L89.2061 513.32C89.1261 512.787 88.8328 512.253 88.3261 511.72C87.8194 511.187 87.0728 510.92 86.0861 510.92ZM107.527 501.16C107.527 500.147 107.86 499.293 108.527 498.6C109.22 497.907 110.127 497.56 111.247 497.56C112.367 497.56 113.26 497.907 113.927 498.6C114.62 499.293 114.967 500.147 114.967 501.16C114.967 502.173 114.62 503.027 113.927 503.72C113.26 504.413 112.367 504.76 111.247 504.76C110.127 504.76 109.22 504.413 108.527 503.72C107.86 503.027 107.527 502.173 107.527 501.16ZM114.647 525.96C114.354 526.013 113.914 526.08 113.327 526.16C112.767 526.267 112.194 526.32 111.607 526.32C111.02 526.32 110.487 526.28 110.007 526.2C109.554 526.12 109.167 525.96 108.847 525.72C108.527 525.48 108.274 525.16 108.087 524.76C107.927 524.333 107.847 523.787 107.847 523.12V506.84C108.14 506.787 108.567 506.72 109.127 506.64C109.714 506.533 110.3 506.48 110.887 506.48C111.474 506.48 111.994 506.52 112.447 506.6C112.927 506.68 113.327 506.84 113.647 507.08C113.967 507.32 114.207 507.653 114.367 508.08C114.554 508.48 114.647 509.013 114.647 509.68V525.96ZM126.176 519.32C126.176 520.013 126.389 520.507 126.816 520.8C127.269 521.093 127.896 521.24 128.696 521.24C129.096 521.24 129.509 521.213 129.936 521.16C130.363 521.08 130.736 520.987 131.056 520.88C131.296 521.173 131.496 521.507 131.656 521.88C131.843 522.227 131.936 522.653 131.936 523.16C131.936 524.173 131.549 525 130.776 525.64C130.029 526.28 128.696 526.6 126.776 526.6C124.429 526.6 122.616 526.067 121.336 525C120.083 523.933 119.456 522.2 119.456 519.8V502.68C119.749 502.6 120.163 502.52 120.696 502.44C121.256 502.333 121.843 502.28 122.456 502.28C123.629 502.28 124.536 502.493 125.176 502.92C125.843 503.32 126.176 504.187 126.176 505.52V508.08H131.416C131.576 508.373 131.723 508.747 131.856 509.2C132.016 509.627 132.096 510.107 132.096 510.64C132.096 511.573 131.883 512.253 131.456 512.68C131.056 513.08 130.509 513.28 129.816 513.28H126.176V519.32ZM151.12 525.96C150.826 526.013 150.386 526.08 149.8 526.16C149.24 526.267 148.666 526.32 148.08 526.32C147.493 526.32 146.96 526.28 146.48 526.2C146.026 526.12 145.64 525.96 145.32 525.72C145 525.48 144.746 525.16 144.56 524.76C144.4 524.333 144.32 523.787 144.32 523.12V499.92C144.613 499.867 145.04 499.8 145.6 499.72C146.186 499.613 146.773 499.56 147.36 499.56C147.946 499.56 148.466 499.6 148.92 499.68C149.4 499.76 149.8 499.92 150.12 500.16C150.44 500.4 150.68 500.733 150.84 501.16C151.026 501.56 151.12 502.093 151.12 502.76V525.96ZM155.65 501.16C155.65 500.147 155.984 499.293 156.65 498.6C157.344 497.907 158.25 497.56 159.37 497.56C160.49 497.56 161.384 497.907 162.05 498.6C162.744 499.293 163.09 500.147 163.09 501.16C163.09 502.173 162.744 503.027 162.05 503.72C161.384 504.413 160.49 504.76 159.37 504.76C158.25 504.76 157.344 504.413 156.65 503.72C155.984 503.027 155.65 502.173 155.65 501.16ZM162.77 525.96C162.477 526.013 162.037 526.08 161.45 526.16C160.89 526.267 160.317 526.32 159.73 526.32C159.144 526.32 158.61 526.28 158.13 526.2C157.677 526.12 157.29 525.96 156.97 525.72C156.65 525.48 156.397 525.16 156.21 524.76C156.05 524.333 155.97 523.787 155.97 523.12V506.84C156.264 506.787 156.69 506.72 157.25 506.64C157.837 506.533 158.424 506.48 159.01 506.48C159.597 506.48 160.117 506.52 160.57 506.6C161.05 506.68 161.45 506.84 161.77 507.08C162.09 507.32 162.33 507.653 162.49 508.08C162.677 508.48 162.77 509.013 162.77 509.68V525.96ZM186.5 522.48C186.366 523.733 185.993 524.693 185.38 525.36C184.793 526.027 183.926 526.36 182.78 526.36C181.926 526.36 181.166 526.16 180.5 525.76C179.833 525.333 179.113 524.627 178.34 523.64L174.38 518.68V525.96C174.086 526.013 173.646 526.08 173.06 526.16C172.5 526.267 171.926 526.32 171.34 526.32C170.753 526.32 170.22 526.28 169.74 526.2C169.286 526.12 168.9 525.96 168.58 525.72C168.26 525.48 168.006 525.16 167.82 524.76C167.66 524.333 167.58 523.787 167.58 523.12V499.96C167.873 499.88 168.3 499.8 168.86 499.72C169.446 499.613 170.033 499.56 170.62 499.56C171.206 499.56 171.726 499.6 172.18 499.68C172.66 499.76 173.06 499.92 173.38 500.16C173.7 500.4 173.94 500.733 174.1 501.16C174.286 501.56 174.38 502.093 174.38 502.76V513.32L181.26 506.28C182.646 506.28 183.753 506.587 184.58 507.2C185.433 507.813 185.86 508.587 185.86 509.52C185.86 509.92 185.793 510.293 185.66 510.64C185.526 510.96 185.313 511.293 185.02 511.64C184.753 511.987 184.393 512.36 183.94 512.76C183.513 513.133 183.006 513.573 182.42 514.08L180.1 516.08L186.5 522.48ZM199.469 526.64C197.895 526.64 196.429 526.427 195.069 526C193.735 525.547 192.562 524.88 191.549 524C190.562 523.12 189.775 522.013 189.189 520.68C188.629 519.347 188.349 517.787 188.349 516C188.349 514.24 188.629 512.733 189.189 511.48C189.775 510.2 190.535 509.16 191.469 508.36C192.402 507.533 193.469 506.933 194.669 506.56C195.869 506.16 197.095 505.96 198.349 505.96C199.762 505.96 201.042 506.173 202.189 506.6C203.362 507.027 204.362 507.613 205.189 508.36C206.042 509.107 206.695 510 207.149 511.04C207.629 512.08 207.869 513.213 207.869 514.44C207.869 515.347 207.615 516.04 207.109 516.52C206.602 517 205.895 517.307 204.989 517.44L195.109 518.92C195.402 519.8 196.002 520.467 196.909 520.92C197.815 521.347 198.855 521.56 200.029 521.56C201.122 521.56 202.149 521.427 203.109 521.16C204.095 520.867 204.895 520.533 205.509 520.16C205.935 520.427 206.295 520.8 206.589 521.28C206.882 521.76 207.029 522.267 207.029 522.8C207.029 524 206.469 524.893 205.349 525.48C204.495 525.933 203.535 526.24 202.469 526.4C201.402 526.56 200.402 526.64 199.469 526.64ZM198.349 510.92C197.709 510.92 197.149 511.027 196.669 511.24C196.215 511.453 195.842 511.733 195.549 512.08C195.255 512.4 195.029 512.773 194.869 513.2C194.735 513.6 194.655 514.013 194.629 514.44L201.469 513.32C201.389 512.787 201.095 512.253 200.589 511.72C200.082 511.187 199.335 510.92 198.349 510.92ZM222.99 521.04C222.696 520.373 222.376 519.627 222.03 518.8C221.71 517.973 221.363 517.027 220.99 515.96C220.643 514.893 220.27 513.68 219.87 512.32C219.496 510.933 219.096 509.347 218.67 507.56C219.043 507.187 219.536 506.867 220.15 506.6C220.79 506.307 221.483 506.16 222.23 506.16C223.163 506.16 223.936 506.36 224.55 506.76C225.163 507.133 225.616 507.853 225.91 508.92L229.07 519.92H229.23C229.55 519.013 229.856 518.027 230.15 516.96C230.47 515.893 230.776 514.8 231.07 513.68C231.363 512.533 231.63 511.4 231.87 510.28C232.136 509.133 232.363 508.013 232.55 506.92C233.51 506.413 234.563 506.16 235.71 506.16C236.643 506.16 237.416 506.36 238.03 506.76C238.643 507.16 238.95 507.853 238.95 508.84C238.95 509.56 238.856 510.4 238.67 511.36C238.483 512.293 238.23 513.293 237.91 514.36C237.616 515.427 237.256 516.533 236.83 517.68C236.43 518.8 236.003 519.907 235.55 521C235.096 522.093 234.63 523.133 234.15 524.12C233.67 525.08 233.203 525.947 232.75 526.72C232.003 528.027 231.31 529.093 230.67 529.92C230.03 530.747 229.416 531.387 228.83 531.84C228.243 532.32 227.656 532.64 227.07 532.8C226.483 532.987 225.87 533.08 225.23 533.08C224.11 533.08 223.203 532.747 222.51 532.08C221.816 531.413 221.403 530.547 221.27 529.48C222.123 528.813 222.976 528.067 223.83 527.24C224.683 526.44 225.456 525.613 226.15 524.76C225.696 524.627 225.203 524.32 224.67 523.84C224.163 523.333 223.603 522.4 222.99 521.04ZM262.305 516.28C262.305 517.933 262.052 519.413 261.545 520.72C261.039 522 260.319 523.08 259.385 523.96C258.479 524.84 257.385 525.507 256.105 525.96C254.825 526.413 253.399 526.64 251.825 526.64C250.252 526.64 248.825 526.4 247.545 525.92C246.265 525.44 245.159 524.76 244.225 523.88C243.319 522.973 242.612 521.88 242.105 520.6C241.599 519.32 241.345 517.88 241.345 516.28C241.345 514.707 241.599 513.28 242.105 512C242.612 510.72 243.319 509.64 244.225 508.76C245.159 507.853 246.265 507.16 247.545 506.68C248.825 506.2 250.252 505.96 251.825 505.96C253.399 505.96 254.825 506.213 256.105 506.72C257.385 507.2 258.479 507.893 259.385 508.8C260.319 509.68 261.039 510.76 261.545 512.04C262.052 513.32 262.305 514.733 262.305 516.28ZM248.305 516.28C248.305 517.907 248.612 519.16 249.225 520.04C249.865 520.893 250.745 521.32 251.865 521.32C252.985 521.32 253.839 520.88 254.425 520C255.039 519.12 255.345 517.88 255.345 516.28C255.345 514.68 255.039 513.453 254.425 512.6C253.812 511.72 252.945 511.28 251.825 511.28C250.705 511.28 249.839 511.72 249.225 512.6C248.612 513.453 248.305 514.68 248.305 516.28ZM266.023 506.84C266.29 506.76 266.703 506.68 267.263 506.6C267.85 506.52 268.45 506.48 269.063 506.48C269.65 506.48 270.17 506.52 270.623 506.6C271.103 506.68 271.503 506.84 271.823 507.08C272.143 507.32 272.383 507.653 272.543 508.08C272.73 508.48 272.823 509.013 272.823 509.68V518.28C272.823 519.373 273.09 520.16 273.623 520.64C274.156 521.093 274.93 521.32 275.943 521.32C276.556 521.32 277.05 521.267 277.423 521.16C277.823 521.053 278.13 520.947 278.343 520.84V506.84C278.61 506.76 279.023 506.68 279.583 506.6C280.17 506.52 280.77 506.48 281.383 506.48C281.97 506.48 282.49 506.52 282.943 506.6C283.423 506.68 283.823 506.84 284.143 507.08C284.463 507.32 284.703 507.653 284.863 508.08C285.05 508.48 285.143 509.013 285.143 509.68V521.84C285.143 523.173 284.583 524.173 283.463 524.84C282.53 525.427 281.41 525.867 280.103 526.16C278.823 526.48 277.423 526.64 275.903 526.64C274.463 526.64 273.13 526.48 271.903 526.16C270.703 525.84 269.663 525.347 268.783 524.68C267.903 524.013 267.223 523.16 266.743 522.12C266.263 521.053 266.023 519.773 266.023 518.28V506.84ZM296.504 525.96C296.238 526.04 295.811 526.12 295.224 526.2C294.664 526.28 294.078 526.32 293.464 526.32C292.878 526.32 292.344 526.28 291.864 526.2C291.411 526.12 291.024 525.96 290.704 525.72C290.384 525.48 290.131 525.16 289.944 524.76C289.784 524.333 289.704 523.787 289.704 523.12V511.12C289.704 510.507 289.811 509.987 290.024 509.56C290.264 509.107 290.598 508.707 291.024 508.36C291.451 508.013 291.971 507.707 292.584 507.44C293.224 507.147 293.904 506.893 294.624 506.68C295.344 506.467 296.091 506.307 296.864 506.2C297.638 506.067 298.411 506 299.184 506C300.464 506 301.478 506.253 302.224 506.76C302.971 507.24 303.344 508.04 303.344 509.16C303.344 509.533 303.291 509.907 303.184 510.28C303.078 510.627 302.944 510.947 302.784 511.24C302.224 511.24 301.651 511.267 301.064 511.32C300.478 511.373 299.904 511.453 299.344 511.56C298.784 511.667 298.251 511.787 297.744 511.92C297.264 512.027 296.851 512.16 296.504 512.32V525.96ZM324.277 505.96C325.371 505.96 326.437 506.12 327.477 506.44C328.544 506.733 329.464 507.187 330.237 507.8C331.037 507.267 331.931 506.827 332.917 506.48C333.931 506.133 335.144 505.96 336.557 505.96C337.571 505.96 338.557 506.093 339.517 506.36C340.504 506.627 341.371 507.053 342.117 507.64C342.891 508.2 343.504 508.96 343.957 509.92C344.411 510.853 344.637 512 344.637 513.36V525.96C344.371 526.04 343.944 526.12 343.357 526.2C342.797 526.28 342.211 526.32 341.597 526.32C341.011 526.32 340.477 526.28 339.997 526.2C339.544 526.12 339.157 525.96 338.837 525.72C338.517 525.48 338.264 525.16 338.077 524.76C337.917 524.333 337.837 523.787 337.837 523.12V513.56C337.837 512.76 337.611 512.187 337.157 511.84C336.704 511.467 336.091 511.28 335.317 511.28C334.944 511.28 334.544 511.373 334.117 511.56C333.691 511.72 333.371 511.893 333.157 512.08C333.184 512.187 333.197 512.293 333.197 512.4C333.197 512.48 333.197 512.56 333.197 512.64V525.96C332.904 526.04 332.464 526.12 331.877 526.2C331.317 526.28 330.744 526.32 330.157 526.32C329.571 526.32 329.037 526.28 328.557 526.2C328.104 526.12 327.717 525.96 327.397 525.72C327.077 525.48 326.824 525.16 326.637 524.76C326.477 524.333 326.397 523.787 326.397 523.12V513.56C326.397 512.76 326.144 512.187 325.637 511.84C325.157 511.467 324.571 511.28 323.877 511.28C323.397 511.28 322.984 511.36 322.637 511.52C322.291 511.653 321.997 511.787 321.757 511.92V525.96C321.491 526.04 321.064 526.12 320.477 526.2C319.917 526.28 319.331 526.32 318.717 526.32C318.131 526.32 317.597 526.28 317.117 526.2C316.664 526.12 316.277 525.96 315.957 525.72C315.637 525.48 315.384 525.16 315.197 524.76C315.037 524.333 314.957 523.787 314.957 523.12V511.04C314.957 510.32 315.104 509.747 315.397 509.32C315.717 508.893 316.144 508.493 316.677 508.12C317.584 507.48 318.704 506.96 320.037 506.56C321.397 506.16 322.811 505.96 324.277 505.96ZM369.305 516.28C369.305 517.933 369.052 519.413 368.545 520.72C368.039 522 367.319 523.08 366.385 523.96C365.479 524.84 364.385 525.507 363.105 525.96C361.825 526.413 360.399 526.64 358.825 526.64C357.252 526.64 355.825 526.4 354.545 525.92C353.265 525.44 352.159 524.76 351.225 523.88C350.319 522.973 349.612 521.88 349.105 520.6C348.599 519.32 348.345 517.88 348.345 516.28C348.345 514.707 348.599 513.28 349.105 512C349.612 510.72 350.319 509.64 351.225 508.76C352.159 507.853 353.265 507.16 354.545 506.68C355.825 506.2 357.252 505.96 358.825 505.96C360.399 505.96 361.825 506.213 363.105 506.72C364.385 507.2 365.479 507.893 366.385 508.8C367.319 509.68 368.039 510.76 368.545 512.04C369.052 513.32 369.305 514.733 369.305 516.28ZM355.305 516.28C355.305 517.907 355.612 519.16 356.225 520.04C356.865 520.893 357.745 521.32 358.865 521.32C359.985 521.32 360.839 520.88 361.425 520C362.039 519.12 362.345 517.88 362.345 516.28C362.345 514.68 362.039 513.453 361.425 512.6C360.812 511.72 359.945 511.28 358.825 511.28C357.705 511.28 356.839 511.72 356.225 512.6C355.612 513.453 355.305 514.68 355.305 516.28ZM382.343 505.96C383.436 505.96 384.503 506.12 385.543 506.44C386.61 506.733 387.53 507.187 388.303 507.8C389.103 507.267 389.996 506.827 390.983 506.48C391.996 506.133 393.21 505.96 394.623 505.96C395.636 505.96 396.623 506.093 397.583 506.36C398.57 506.627 399.436 507.053 400.183 507.64C400.956 508.2 401.57 508.96 402.023 509.92C402.476 510.853 402.703 512 402.703 513.36V525.96C402.436 526.04 402.01 526.12 401.423 526.2C400.863 526.28 400.276 526.32 399.663 526.32C399.076 526.32 398.543 526.28 398.063 526.2C397.61 526.12 397.223 525.96 396.903 525.72C396.583 525.48 396.33 525.16 396.143 524.76C395.983 524.333 395.903 523.787 395.903 523.12V513.56C395.903 512.76 395.676 512.187 395.223 511.84C394.77 511.467 394.156 511.28 393.383 511.28C393.01 511.28 392.61 511.373 392.183 511.56C391.756 511.72 391.436 511.893 391.223 512.08C391.25 512.187 391.263 512.293 391.263 512.4C391.263 512.48 391.263 512.56 391.263 512.64V525.96C390.97 526.04 390.53 526.12 389.943 526.2C389.383 526.28 388.81 526.32 388.223 526.32C387.636 526.32 387.103 526.28 386.623 526.2C386.17 526.12 385.783 525.96 385.463 525.72C385.143 525.48 384.89 525.16 384.703 524.76C384.543 524.333 384.463 523.787 384.463 523.12V513.56C384.463 512.76 384.21 512.187 383.703 511.84C383.223 511.467 382.636 511.28 381.943 511.28C381.463 511.28 381.05 511.36 380.703 511.52C380.356 511.653 380.063 511.787 379.823 511.92V525.96C379.556 526.04 379.13 526.12 378.543 526.2C377.983 526.28 377.396 526.32 376.783 526.32C376.196 526.32 375.663 526.28 375.183 526.2C374.73 526.12 374.343 525.96 374.023 525.72C373.703 525.48 373.45 525.16 373.263 524.76C373.103 524.333 373.023 523.787 373.023 523.12V511.04C373.023 510.32 373.17 509.747 373.463 509.32C373.783 508.893 374.21 508.493 374.743 508.12C375.65 507.48 376.77 506.96 378.103 506.56C379.463 506.16 380.876 505.96 382.343 505.96ZM416.571 505.96C417.664 505.96 418.731 506.12 419.771 506.44C420.838 506.733 421.758 507.187 422.531 507.8C423.331 507.267 424.224 506.827 425.211 506.48C426.224 506.133 427.438 505.96 428.851 505.96C429.864 505.96 430.851 506.093 431.811 506.36C432.798 506.627 433.664 507.053 434.411 507.64C435.184 508.2 435.798 508.96 436.251 509.92C436.704 510.853 436.931 512 436.931 513.36V525.96C436.664 526.04 436.238 526.12 435.651 526.2C435.091 526.28 434.504 526.32 433.891 526.32C433.304 526.32 432.771 526.28 432.291 526.2C431.838 526.12 431.451 525.96 431.131 525.72C430.811 525.48 430.558 525.16 430.371 524.76C430.211 524.333 430.131 523.787 430.131 523.12V513.56C430.131 512.76 429.904 512.187 429.451 511.84C428.998 511.467 428.384 511.28 427.611 511.28C427.238 511.28 426.838 511.373 426.411 511.56C425.984 511.72 425.664 511.893 425.451 512.08C425.478 512.187 425.491 512.293 425.491 512.4C425.491 512.48 425.491 512.56 425.491 512.64V525.96C425.198 526.04 424.758 526.12 424.171 526.2C423.611 526.28 423.038 526.32 422.451 526.32C421.864 526.32 421.331 526.28 420.851 526.2C420.398 526.12 420.011 525.96 419.691 525.72C419.371 525.48 419.118 525.16 418.931 524.76C418.771 524.333 418.691 523.787 418.691 523.12V513.56C418.691 512.76 418.438 512.187 417.931 511.84C417.451 511.467 416.864 511.28 416.171 511.28C415.691 511.28 415.278 511.36 414.931 511.52C414.584 511.653 414.291 511.787 414.051 511.92V525.96C413.784 526.04 413.358 526.12 412.771 526.2C412.211 526.28 411.624 526.32 411.011 526.32C410.424 526.32 409.891 526.28 409.411 526.2C408.958 526.12 408.571 525.96 408.251 525.72C407.931 525.48 407.678 525.16 407.491 524.76C407.331 524.333 407.251 523.787 407.251 523.12V511.04C407.251 510.32 407.398 509.747 407.691 509.32C408.011 508.893 408.438 508.493 408.971 508.12C409.878 507.48 410.998 506.96 412.331 506.56C413.691 506.16 415.104 505.96 416.571 505.96ZM449.799 521.68C450.253 521.68 450.746 521.64 451.279 521.56C451.839 521.453 452.253 521.32 452.519 521.16V517.96L449.639 518.2C448.893 518.253 448.279 518.413 447.799 518.68C447.319 518.947 447.079 519.347 447.079 519.88C447.079 520.413 447.279 520.853 447.679 521.2C448.106 521.52 448.813 521.68 449.799 521.68ZM449.479 505.96C450.919 505.96 452.226 506.107 453.399 506.4C454.599 506.693 455.613 507.147 456.439 507.76C457.293 508.347 457.946 509.107 458.399 510.04C458.853 510.947 459.079 512.027 459.079 513.28V522.24C459.079 522.933 458.879 523.507 458.479 523.96C458.106 524.387 457.653 524.76 457.119 525.08C455.386 526.12 452.946 526.64 449.799 526.64C448.386 526.64 447.106 526.507 445.959 526.24C444.839 525.973 443.866 525.573 443.039 525.04C442.239 524.507 441.613 523.827 441.159 523C440.733 522.173 440.519 521.213 440.519 520.12C440.519 518.28 441.066 516.867 442.159 515.88C443.253 514.893 444.946 514.28 447.239 514.04L452.479 513.48V513.2C452.479 512.427 452.133 511.88 451.439 511.56C450.773 511.213 449.799 511.04 448.519 511.04C447.506 511.04 446.519 511.147 445.559 511.36C444.599 511.573 443.733 511.84 442.959 512.16C442.613 511.92 442.319 511.56 442.079 511.08C441.839 510.573 441.719 510.053 441.719 509.52C441.719 508.827 441.879 508.28 442.199 507.88C442.546 507.453 443.066 507.093 443.759 506.8C444.533 506.507 445.439 506.293 446.479 506.16C447.546 506.027 448.546 505.96 449.479 505.96ZM483.125 525.4C482.752 525.72 482.245 525.973 481.605 526.16C480.965 526.373 480.205 526.48 479.325 526.48C478.232 526.48 477.285 526.32 476.485 526C475.685 525.707 475.152 525.28 474.885 524.72C474.592 524.08 474.245 523.067 473.845 521.68C473.472 520.293 473.098 518.773 472.725 517.12C472.352 515.467 471.992 513.787 471.645 512.08C471.325 510.373 471.072 508.867 470.885 507.56C471.258 507.187 471.752 506.867 472.365 506.6C473.005 506.307 473.698 506.16 474.445 506.16C475.378 506.16 476.138 506.373 476.725 506.8C477.338 507.2 477.712 507.907 477.845 508.92C478.112 510.947 478.338 512.627 478.525 513.96C478.712 515.267 478.858 516.347 478.965 517.2C479.098 518.027 479.192 518.667 479.245 519.12C479.325 519.547 479.392 519.893 479.445 520.16H479.605C479.685 519.733 479.818 519.12 480.005 518.32C480.218 517.493 480.458 516.56 480.725 515.52C480.992 514.48 481.272 513.36 481.565 512.16C481.858 510.933 482.152 509.72 482.445 508.52C482.978 508.227 483.498 508 484.005 507.84C484.538 507.68 485.192 507.6 485.965 507.6C486.898 507.6 487.698 507.747 488.365 508.04C489.032 508.333 489.458 508.787 489.645 509.4C489.965 510.573 490.272 511.72 490.565 512.84C490.858 513.933 491.125 514.96 491.365 515.92C491.605 516.853 491.818 517.693 492.005 518.44C492.192 519.16 492.325 519.733 492.405 520.16H492.605C492.898 518.107 493.178 515.973 493.445 513.76C493.738 511.547 494.005 509.293 494.245 507C494.725 506.707 495.232 506.493 495.765 506.36C496.298 506.227 496.832 506.16 497.365 506.16C498.298 506.16 499.072 506.36 499.685 506.76C500.298 507.16 500.605 507.853 500.605 508.84C500.605 509.267 500.538 509.907 500.405 510.76C500.272 511.613 500.098 512.573 499.885 513.64C499.672 514.707 499.418 515.827 499.125 517C498.858 518.173 498.578 519.307 498.285 520.4C498.018 521.493 497.752 522.48 497.485 523.36C497.245 524.24 497.032 524.92 496.845 525.4C496.472 525.72 495.898 525.973 495.125 526.16C494.352 526.373 493.525 526.48 492.645 526.48C490.405 526.48 489.085 525.92 488.685 524.8C488.525 524.32 488.325 523.72 488.085 523C487.845 522.253 487.592 521.44 487.325 520.56C487.058 519.68 486.805 518.773 486.565 517.84C486.325 516.88 486.125 515.96 485.965 515.08C485.778 516.013 485.552 516.987 485.285 518C485.018 518.987 484.738 519.96 484.445 520.92C484.178 521.853 483.925 522.72 483.685 523.52C483.445 524.293 483.258 524.92 483.125 525.4ZM524.205 516.28C524.205 517.933 523.952 519.413 523.445 520.72C522.939 522 522.219 523.08 521.285 523.96C520.379 524.84 519.285 525.507 518.005 525.96C516.725 526.413 515.299 526.64 513.725 526.64C512.152 526.64 510.725 526.4 509.445 525.92C508.165 525.44 507.059 524.76 506.125 523.88C505.219 522.973 504.512 521.88 504.005 520.6C503.499 519.32 503.245 517.88 503.245 516.28C503.245 514.707 503.499 513.28 504.005 512C504.512 510.72 505.219 509.64 506.125 508.76C507.059 507.853 508.165 507.16 509.445 506.68C510.725 506.2 512.152 505.96 513.725 505.96C515.299 505.96 516.725 506.213 518.005 506.72C519.285 507.2 520.379 507.893 521.285 508.8C522.219 509.68 522.939 510.76 523.445 512.04C523.952 513.32 524.205 514.733 524.205 516.28ZM510.205 516.28C510.205 517.907 510.512 519.16 511.125 520.04C511.765 520.893 512.645 521.32 513.765 521.32C514.885 521.32 515.739 520.88 516.325 520C516.939 519.12 517.245 517.88 517.245 516.28C517.245 514.68 516.939 513.453 516.325 512.6C515.712 511.72 514.845 511.28 513.725 511.28C512.605 511.28 511.739 511.72 511.125 512.6C510.512 513.453 510.205 514.68 510.205 516.28ZM527.923 506.84C528.19 506.76 528.603 506.68 529.163 506.6C529.75 506.52 530.35 506.48 530.963 506.48C531.55 506.48 532.07 506.52 532.523 506.6C533.003 506.68 533.403 506.84 533.723 507.08C534.043 507.32 534.283 507.653 534.443 508.08C534.63 508.48 534.723 509.013 534.723 509.68V518.28C534.723 519.373 534.99 520.16 535.523 520.64C536.056 521.093 536.83 521.32 537.843 521.32C538.456 521.32 538.95 521.267 539.323 521.16C539.723 521.053 540.03 520.947 540.243 520.84V506.84C540.51 506.76 540.923 506.68 541.483 506.6C542.07 506.52 542.67 506.48 543.283 506.48C543.87 506.48 544.39 506.52 544.843 506.6C545.323 506.68 545.723 506.84 546.043 507.08C546.363 507.32 546.603 507.653 546.763 508.08C546.95 508.48 547.043 509.013 547.043 509.68V521.84C547.043 523.173 546.483 524.173 545.363 524.84C544.43 525.427 543.31 525.867 542.003 526.16C540.723 526.48 539.323 526.64 537.803 526.64C536.363 526.64 535.03 526.48 533.803 526.16C532.603 525.84 531.563 525.347 530.683 524.68C529.803 524.013 529.123 523.16 528.643 522.12C528.163 521.053 527.923 519.773 527.923 518.28V506.84ZM558.524 525.96C558.231 526.013 557.791 526.08 557.204 526.16C556.644 526.267 556.071 526.32 555.484 526.32C554.898 526.32 554.364 526.28 553.884 526.2C553.431 526.12 553.044 525.96 552.724 525.72C552.404 525.48 552.151 525.16 551.964 524.76C551.804 524.333 551.724 523.787 551.724 523.12V499.92C552.018 499.867 552.444 499.8 553.004 499.72C553.591 499.613 554.178 499.56 554.764 499.56C555.351 499.56 555.871 499.6 556.324 499.68C556.804 499.76 557.204 499.92 557.524 500.16C557.844 500.4 558.084 500.733 558.244 501.16C558.431 501.56 558.524 502.093 558.524 502.76V525.96ZM562.375 516.28C562.375 514.52 562.642 513 563.175 511.72C563.708 510.413 564.442 509.333 565.375 508.48C566.335 507.627 567.442 507 568.695 506.6C569.975 506.173 571.348 505.96 572.815 505.96C573.348 505.96 573.868 506.013 574.375 506.12C574.882 506.2 575.295 506.307 575.615 506.44V499.96C575.882 499.88 576.308 499.8 576.895 499.72C577.482 499.613 578.082 499.56 578.695 499.56C579.282 499.56 579.802 499.6 580.255 499.68C580.735 499.76 581.135 499.92 581.455 500.16C581.775 500.4 582.015 500.733 582.175 501.16C582.335 501.56 582.415 502.093 582.415 502.76V521.72C582.415 522.973 581.828 523.973 580.655 524.72C579.882 525.227 578.882 525.667 577.655 526.04C576.428 526.44 575.015 526.64 573.415 526.64C571.682 526.64 570.122 526.4 568.735 525.92C567.375 525.44 566.215 524.747 565.255 523.84C564.322 522.933 563.602 521.853 563.095 520.6C562.615 519.32 562.375 517.88 562.375 516.28ZM573.735 511.28C572.295 511.28 571.188 511.693 570.415 512.52C569.642 513.347 569.255 514.6 569.255 516.28C569.255 517.933 569.615 519.187 570.335 520.04C571.055 520.867 572.095 521.28 573.455 521.28C573.935 521.28 574.362 521.213 574.735 521.08C575.135 520.92 575.442 520.747 575.655 520.56V511.76C575.122 511.44 574.482 511.28 573.735 511.28Z" fill="#F2F2F2"/>
<path d="M63.8512 453.1C62.9845 453.833 61.8512 454.433 60.4512 454.9C59.1178 455.3 57.5512 455.5 55.7512 455.5C53.3512 455.5 51.3512 455.2 49.7512 454.6C48.2178 454 47.2178 452.967 46.7512 451.5C44.8845 445.633 43.3512 440.9 42.1512 437.3C40.9512 433.633 40.0178 430.433 39.3512 427.7H38.8512C38.6512 431.633 38.4845 435.233 38.3512 438.5C38.2845 441.7 38.2178 444.833 38.1512 447.9C38.1512 450.967 38.0845 454.067 37.9512 457.2C37.8845 460.333 37.7512 463.8 37.5512 467.6C36.6845 467.933 35.5512 468.2 34.1512 468.4C32.7512 468.667 31.3512 468.8 29.9512 468.8C27.0178 468.8 24.7178 468.333 23.0512 467.4C21.4512 466.467 20.6512 464.767 20.6512 462.3L23.5512 411.3C24.0845 410.433 25.2512 409.5 27.0512 408.5C28.8512 407.5 31.3845 407 34.6512 407C38.1845 407 40.9512 407.567 42.9512 408.7C44.9512 409.767 46.4178 411.533 47.3512 414C47.9512 415.6 48.5845 417.433 49.2512 419.5C49.9845 421.567 50.6845 423.7 51.3512 425.9C52.0845 428.1 52.7845 430.3 53.4512 432.5C54.1178 434.633 54.7178 436.567 55.2512 438.3H55.7512C57.3512 432.7 58.9512 427.3 60.5512 422.1C62.1512 416.833 63.6178 412.433 64.9512 408.9C65.9512 408.367 67.2178 407.933 68.7512 407.6C70.3512 407.2 72.1178 407 74.0512 407C77.3178 407 79.9845 407.5 82.0512 408.5C84.1178 409.433 85.3178 410.8 85.6512 412.6C85.9178 413.933 86.1845 416 86.4512 418.8C86.7845 421.533 87.1178 424.633 87.4512 428.1C87.7845 431.567 88.1178 435.233 88.4512 439.1C88.7845 442.967 89.0845 446.7 89.3512 450.3C89.6845 453.833 89.9512 457.1 90.1512 460.1C90.3512 463.033 90.4845 465.3 90.5512 466.9C89.4178 467.567 88.2178 468.033 86.9512 468.3C85.7512 468.633 84.1845 468.8 82.2512 468.8C79.7178 468.8 77.5845 468.367 75.8512 467.5C74.1178 466.633 73.1845 464.933 73.0512 462.4C72.6512 455.133 72.3845 448.6 72.2512 442.8C72.1845 437 72.0512 432.133 71.8512 428.2H71.3512C70.6845 430.8 69.7178 434.067 68.4512 438C67.1845 441.933 65.6512 446.967 63.8512 453.1ZM151.248 443.7C151.248 447.833 150.615 451.533 149.348 454.8C148.081 458 146.281 460.7 143.948 462.9C141.681 465.1 138.948 466.767 135.748 467.9C132.548 469.033 128.981 469.6 125.048 469.6C121.115 469.6 117.548 469 114.348 467.8C111.148 466.6 108.381 464.9 106.048 462.7C103.781 460.433 102.015 457.7 100.748 454.5C99.4814 451.3 98.848 447.7 98.848 443.7C98.848 439.767 99.4814 436.2 100.748 433C102.015 429.8 103.781 427.1 106.048 424.9C108.381 422.633 111.148 420.9 114.348 419.7C117.548 418.5 121.115 417.9 125.048 417.9C128.981 417.9 132.548 418.533 135.748 419.8C138.948 421 141.681 422.733 143.948 425C146.281 427.2 148.081 429.9 149.348 433.1C150.615 436.3 151.248 439.833 151.248 443.7ZM116.248 443.7C116.248 447.767 117.015 450.9 118.548 453.1C120.148 455.233 122.348 456.3 125.148 456.3C127.948 456.3 130.081 455.2 131.548 453C133.081 450.8 133.848 447.7 133.848 443.7C133.848 439.7 133.081 436.633 131.548 434.5C130.015 432.3 127.848 431.2 125.048 431.2C122.248 431.2 120.081 432.3 118.548 434.5C117.015 436.633 116.248 439.7 116.248 443.7ZM177.542 451.3C177.542 453.033 178.075 454.267 179.142 455C180.275 455.733 181.842 456.1 183.842 456.1C184.842 456.1 185.875 456.033 186.942 455.9C188.008 455.7 188.942 455.467 189.742 455.2C190.342 455.933 190.842 456.767 191.242 457.7C191.708 458.567 191.942 459.633 191.942 460.9C191.942 463.433 190.975 465.5 189.042 467.1C187.175 468.7 183.842 469.5 179.042 469.5C173.175 469.5 168.642 468.167 165.442 465.5C162.308 462.833 160.742 458.5 160.742 452.5V409.7C161.475 409.5 162.508 409.3 163.842 409.1C165.242 408.833 166.708 408.7 168.242 408.7C171.175 408.7 173.442 409.233 175.042 410.3C176.708 411.3 177.542 413.467 177.542 416.8V423.2H190.642C191.042 423.933 191.408 424.867 191.742 426C192.142 427.067 192.342 428.267 192.342 429.6C192.342 431.933 191.808 433.633 190.742 434.7C189.742 435.7 188.375 436.2 186.642 436.2H177.542V451.3ZM249.581 467.9C248.914 468.1 247.848 468.3 246.381 468.5C244.981 468.7 243.514 468.8 241.981 468.8C240.514 468.8 239.181 468.7 237.981 468.5C236.848 468.3 235.881 467.9 235.081 467.3C234.281 466.7 233.648 465.9 233.181 464.9C232.781 463.833 232.581 462.467 232.581 460.8V438.6C232.581 435.867 231.881 433.967 230.481 432.9C229.148 431.767 227.481 431.2 225.481 431.2C224.148 431.2 222.881 431.367 221.681 431.7C220.481 432.033 219.514 432.433 218.781 432.9V467.9C218.114 468.1 217.048 468.3 215.581 468.5C214.181 468.7 212.714 468.8 211.181 468.8C209.714 468.8 208.381 468.7 207.181 468.5C206.048 468.3 205.081 467.9 204.281 467.3C203.481 466.7 202.848 465.9 202.381 464.9C201.981 463.833 201.781 462.467 201.781 460.8V402.8C202.514 402.667 203.581 402.5 204.981 402.3C206.448 402.033 207.914 401.9 209.381 401.9C210.848 401.9 212.148 402 213.281 402.2C214.481 402.4 215.481 402.8 216.281 403.4C217.081 404 217.681 404.833 218.081 405.9C218.548 406.9 218.781 408.233 218.781 409.9V419.7C219.648 419.367 220.948 419 222.681 418.6C224.481 418.133 226.448 417.9 228.581 417.9C235.181 417.9 240.314 419.567 243.981 422.9C247.714 426.167 249.581 431.067 249.581 437.6V467.9ZM286.777 469.6C282.844 469.6 279.177 469.067 275.777 468C272.444 466.867 269.51 465.2 266.977 463C264.51 460.8 262.544 458.033 261.077 454.7C259.677 451.367 258.977 447.467 258.977 443C258.977 438.6 259.677 434.833 261.077 431.7C262.544 428.5 264.444 425.9 266.777 423.9C269.11 421.833 271.777 420.333 274.777 419.4C277.777 418.4 280.844 417.9 283.977 417.9C287.51 417.9 290.71 418.433 293.577 419.5C296.51 420.567 299.01 422.033 301.077 423.9C303.21 425.767 304.844 428 305.977 430.6C307.177 433.2 307.777 436.033 307.777 439.1C307.777 441.367 307.144 443.1 305.877 444.3C304.61 445.5 302.844 446.267 300.577 446.6L275.877 450.3C276.61 452.5 278.11 454.167 280.377 455.3C282.644 456.367 285.244 456.9 288.177 456.9C290.91 456.9 293.477 456.567 295.877 455.9C298.344 455.167 300.344 454.333 301.877 453.4C302.944 454.067 303.844 455 304.577 456.2C305.31 457.4 305.677 458.667 305.677 460C305.677 463 304.277 465.233 301.477 466.7C299.344 467.833 296.944 468.6 294.277 469C291.61 469.4 289.11 469.6 286.777 469.6ZM283.977 430.3C282.377 430.3 280.977 430.567 279.777 431.1C278.644 431.633 277.71 432.333 276.977 433.2C276.244 434 275.677 434.933 275.277 436C274.944 437 274.744 438.033 274.677 439.1L291.777 436.3C291.577 434.967 290.844 433.633 289.577 432.3C288.31 430.967 286.444 430.3 283.977 430.3ZM333.96 467.9C333.293 468.1 332.226 468.3 330.76 468.5C329.36 468.7 327.893 468.8 326.36 468.8C324.893 468.8 323.56 468.7 322.36 468.5C321.226 468.3 320.26 467.9 319.46 467.3C318.66 466.7 318.026 465.9 317.56 464.9C317.16 463.833 316.96 462.467 316.96 460.8V430.8C316.96 429.267 317.226 427.967 317.76 426.9C318.36 425.767 319.193 424.767 320.26 423.9C321.326 423.033 322.626 422.267 324.16 421.6C325.76 420.867 327.46 420.233 329.26 419.7C331.06 419.167 332.926 418.767 334.86 418.5C336.793 418.167 338.726 418 340.66 418C343.86 418 346.393 418.633 348.26 419.9C350.126 421.1 351.06 423.1 351.06 425.9C351.06 426.833 350.926 427.767 350.66 428.7C350.393 429.567 350.06 430.367 349.66 431.1C348.26 431.1 346.826 431.167 345.36 431.3C343.893 431.433 342.46 431.633 341.06 431.9C339.66 432.167 338.326 432.467 337.06 432.8C335.86 433.067 334.826 433.4 333.96 433.8V467.9ZM384.618 431.3C382.951 431.3 381.351 431.567 379.818 432.1C378.351 432.633 377.051 433.433 375.918 434.5C374.851 435.5 373.984 436.767 373.318 438.3C372.651 439.833 372.318 441.633 372.318 443.7C372.318 447.833 373.484 450.933 375.818 453C378.218 455.067 381.118 456.1 384.518 456.1C386.518 456.1 388.251 455.867 389.718 455.4C391.184 454.933 392.484 454.433 393.618 453.9C394.951 454.833 395.951 455.867 396.618 457C397.284 458.067 397.618 459.367 397.618 460.9C397.618 463.633 396.318 465.767 393.718 467.3C391.118 468.767 387.518 469.5 382.918 469.5C378.718 469.5 374.918 468.9 371.518 467.7C368.118 466.433 365.184 464.7 362.718 462.5C360.318 460.233 358.451 457.533 357.118 454.4C355.784 451.267 355.118 447.8 355.118 444C355.118 439.6 355.818 435.767 357.218 432.5C358.684 429.167 360.651 426.433 363.118 424.3C365.584 422.167 368.418 420.567 371.618 419.5C374.884 418.433 378.318 417.9 381.918 417.9C386.718 417.9 390.418 418.767 393.018 420.5C395.618 422.233 396.918 424.467 396.918 427.2C396.918 428.467 396.618 429.667 396.018 430.8C395.418 431.867 394.718 432.8 393.918 433.6C392.784 433.067 391.418 432.567 389.818 432.1C388.218 431.567 386.484 431.3 384.618 431.3ZM455.979 443.7C455.979 447.833 455.345 451.533 454.079 454.8C452.812 458 451.012 460.7 448.679 462.9C446.412 465.1 443.679 466.767 440.479 467.9C437.279 469.033 433.712 469.6 429.779 469.6C425.845 469.6 422.279 469 419.079 467.8C415.879 466.6 413.112 464.9 410.779 462.7C408.512 460.433 406.745 457.7 405.479 454.5C404.212 451.3 403.579 447.7 403.579 443.7C403.579 439.767 404.212 436.2 405.479 433C406.745 429.8 408.512 427.1 410.779 424.9C413.112 422.633 415.879 420.9 419.079 419.7C422.279 418.5 425.845 417.9 429.779 417.9C433.712 417.9 437.279 418.533 440.479 419.8C443.679 421 446.412 422.733 448.679 425C451.012 427.2 452.812 429.9 454.079 433.1C455.345 436.3 455.979 439.833 455.979 443.7ZM420.979 443.7C420.979 447.767 421.745 450.9 423.279 453.1C424.879 455.233 427.079 456.3 429.879 456.3C432.679 456.3 434.812 455.2 436.279 453C437.812 450.8 438.579 447.7 438.579 443.7C438.579 439.7 437.812 436.633 436.279 434.5C434.745 432.3 432.579 431.2 429.779 431.2C426.979 431.2 424.812 432.3 423.279 434.5C421.745 436.633 420.979 439.7 420.979 443.7ZM463.172 443.7C463.172 439.3 463.839 435.5 465.172 432.3C466.506 429.033 468.339 426.333 470.672 424.2C473.072 422.067 475.839 420.5 478.972 419.5C482.172 418.433 485.606 417.9 489.272 417.9C490.606 417.9 491.906 418.033 493.172 418.3C494.439 418.5 495.472 418.767 496.272 419.1V402.9C496.939 402.7 498.006 402.5 499.472 402.3C500.939 402.033 502.439 401.9 503.972 401.9C505.439 401.9 506.739 402 507.872 402.2C509.072 402.4 510.072 402.8 510.872 403.4C511.672 404 512.272 404.833 512.672 405.9C513.072 406.9 513.272 408.233 513.272 409.9V457.3C513.272 460.433 511.806 462.933 508.872 464.8C506.939 466.067 504.439 467.167 501.372 468.1C498.306 469.1 494.772 469.6 490.772 469.6C486.439 469.6 482.539 469 479.072 467.8C475.672 466.6 472.772 464.867 470.372 462.6C468.039 460.333 466.239 457.633 464.972 454.5C463.772 451.3 463.172 447.7 463.172 443.7ZM491.572 431.2C487.972 431.2 485.206 432.233 483.272 434.3C481.339 436.367 480.372 439.5 480.372 443.7C480.372 447.833 481.272 450.967 483.072 453.1C484.872 455.167 487.472 456.2 490.872 456.2C492.072 456.2 493.139 456.033 494.072 455.7C495.072 455.3 495.839 454.867 496.372 454.4V432.4C495.039 431.6 493.439 431.2 491.572 431.2ZM550.566 469.6C546.633 469.6 542.966 469.067 539.566 468C536.233 466.867 533.299 465.2 530.766 463C528.299 460.8 526.333 458.033 524.866 454.7C523.466 451.367 522.766 447.467 522.766 443C522.766 438.6 523.466 434.833 524.866 431.7C526.333 428.5 528.233 425.9 530.566 423.9C532.899 421.833 535.566 420.333 538.566 419.4C541.566 418.4 544.633 417.9 547.766 417.9C551.299 417.9 554.499 418.433 557.366 419.5C560.299 420.567 562.799 422.033 564.866 423.9C566.999 425.767 568.633 428 569.766 430.6C570.966 433.2 571.566 436.033 571.566 439.1C571.566 441.367 570.933 443.1 569.666 444.3C568.399 445.5 566.633 446.267 564.366 446.6L539.666 450.3C540.399 452.5 541.899 454.167 544.166 455.3C546.433 456.367 549.033 456.9 551.966 456.9C554.699 456.9 557.266 456.567 559.666 455.9C562.133 455.167 564.133 454.333 565.666 453.4C566.733 454.067 567.633 455 568.366 456.2C569.099 457.4 569.466 458.667 569.466 460C569.466 463 568.066 465.233 565.266 466.7C563.133 467.833 560.733 468.6 558.066 469C555.399 469.4 552.899 469.6 550.566 469.6ZM547.766 430.3C546.166 430.3 544.766 430.567 543.566 431.1C542.433 431.633 541.499 432.333 540.766 433.2C540.033 434 539.466 434.933 539.066 436C538.733 437 538.533 438.033 538.466 439.1L555.566 436.3C555.366 434.967 554.633 433.633 553.366 432.3C552.099 430.967 550.233 430.3 547.766 430.3Z" fill="#F2F2F2"/>
<path d="M537.646 177.241H440.716L392.148 265.383L440.716 353.331H537.646L586.193 265.383L537.646 177.241Z" fill="#EC6400" fill-opacity="0.5"/>
<path d="M328.166 147.834L328.023 147.92L411.059 298.848L411.244 298.719L440.651 351.986L537.581 351.986L586.128 264.038L537.581 176.09H537.54L489.054 88.2275L489.218 87.9482L440.651 2.07557e-05L343.72 2.07557e-05L295.173 87.9482L328.166 147.834Z" fill="#F3E200"/>
<path d="M149.742 177.597H52.8119L4.24432 265.739L52.8119 353.687H149.742L198.289 265.739L149.742 177.597Z" fill="#EC6400"/>
<path d="M362.334 210.042H362.355L359.07 204.138L344.452 177.653H344.39L278.979 59.7775L247.157 2.52974H150.067L101.409 90.0914L134.155 149.029L214.287 293.561L247.157 352.969H344.452L392.905 265.407L362.334 210.042Z" fill="#5271FF"/>
<path d="M541.595 212.186L550.047 197.708L588.784 264.775L571.959 264.775L541.595 212.186Z" fill="#A3AE1C"/>
<path d="M549.969 331.997L541.595 317.285L571.959 264.775L588.862 264.775L549.969 331.997Z" fill="#A3AE1C"/>
<path d="M47.4635 214.523L39.1796 200.333L1.21146 266.067L17.7026 266.067L47.4635 214.523Z" fill="#FF0E82"/>
<path d="M39.2562 331.955L47.4635 317.535L17.7027 266.067L1.1348 266.067L39.2562 331.955Z" fill="#FF0E82"/>
</svg>
