<svg id="Learning_Online_Makes_Fun" data-name="Learning Online Makes Fun" xmlns="http://www.w3.org/2000/svg" viewBox="0 0 1218.5 1051.94"><defs><style>.cls-1{fill:#3d5460;}.cls-2{fill:#0e395a;}.cls-3{fill:#fff;}.cls-4{fill:#508be2;}.cls-5{fill:#f5f3e3;}.cls-6{fill:#015566;}.cls-7{fill:#004751;}.cls-8{fill:#fcb913;}.cls-9{fill:#dd9b0a;}.cls-10{fill:#f59060;}.cls-11{fill:#090909;}.cls-12{fill:#fc6d6d;}.cls-13{fill:#ff4655;}.cls-14{fill:#6595f7;}.cls-15{fill:#080808;}.cls-16{fill:#6445f1;}.cls-17{fill:#30a9fa;}.cls-18{fill:#ea426a;}.cls-19{fill:#fdd047;}.cls-20{fill:#13e0cf;}.cls-21{fill:#57717f;}.cls-22{fill:#ef4c4e;}.cls-23{fill:#ffca5c;}.cls-24{fill:#f5b444;}.cls-25{fill:#f38375;}.cls-26{fill:#d2e1ea;}.cls-27{fill:#aec2d5;}.cls-28{fill:#fe7934;}.cls-29{fill:#46115b;}.cls-30{fill:#d793ff;}.cls-31{fill:#0879f9;}.cls-32,.cls-34{fill:none;stroke-linecap:round;stroke-linejoin:round;stroke-width:2px;}.cls-32{stroke:#0879f9;}.cls-33{fill:#b656ff;}.cls-34{stroke:#b656ff;}.cls-35{fill:#63e55c;}</style></defs><rect class="cls-1" x="66.13" y="192.21" width="344.53" height="187.13"/><path class="cls-2" d="M593.2,541.5H235.5a6.43,6.43,0,0,1-6.63-6.21V336.38a6.43,6.43,0,0,1,6.63-6.22H593.2a6.42,6.42,0,0,1,6.62,6.22V535.29A6.42,6.42,0,0,1,593.2,541.5ZM242.08,529.4H586.61V342.27H242.08Z" transform="translate(-175.95 -150.06)"/><rect class="cls-3" x="66.13" y="192.21" width="85.86" height="187.13"/><path class="cls-4" d="M245.33,302.16a6,6,0,0,1,5.75,6.23v49.7l-8.5-6.86a11,11,0,0,0-6.88-2.47H187.43a6,6,0,0,1-5.76-6.22V308.39a6,6,0,0,1,5.76-6.23Z" transform="translate(-175.95 -150.06)"/><path class="cls-2" d="M249.34,360.64l-8.8-6.83a8.87,8.87,0,0,0-5.46-1.89H185a9.2,9.2,0,0,1-9.06-9.34V308.34A9.2,9.2,0,0,1,185,299h60.08a9.2,9.2,0,0,1,9.06,9.34v49.71a3.27,3.27,0,0,1-.73,2.14,2.95,2.95,0,0,1-4.08.45ZM245,305.32H184.34a3.06,3.06,0,0,0-3,3.11v34.06a3.07,3.07,0,0,0,3,3.12h50.59a14.81,14.81,0,0,1,9,3.07L248,351.8V308.43A3.07,3.07,0,0,0,245,305.32Z" transform="translate(-175.95 -150.06)"/><g id="Programmer"><g id="Background"><path class="cls-5" d="M954.14,742.3c20.24-36.15,7.12-79.13-2.21-118.66A574.51,574.51,0,0,1,936.7,506.05c-.47-18.77.31-38.6,11.38-54.58,10.83-15.63,29.8-25.1,48.17-33.47,72-32.82,157.37-59.46,232.1-31.9,52,19.16,90.42,64.73,96.61,114.51s-20.12,101.73-66.12,130.55c-25.47,16-56.25,25.26-78.6,44.57-36.76,31.75-40.38,89.07-7.86,124.3,24.06,26.06,61.69,38.16,94.32,55.32,50,26.27,90.44,66.63,114.11,113.8,13.68,27.25,21.15,60.89,2.4,85.65-30.78,40.66-102.93,25.75-147.55-3s-88.14-68.89-143.17-66.68c-33.67,1.35-63.36,18.82-92.58,33.8A713,713,0,0,1,823,1081.51c-47.25,10-97,15.37-144.26,5.49s-92-37.09-110.25-77.15c-24.44-53.5,5.2-118.44,57.8-152.24C713.93,801.3,897.71,843.09,954.14,742.3Z" transform="translate(-175.95 -150.06)"/><path class="cls-5" d="M853.36,588.05c-3.14,38-18.62,76.76-50.7,102-41.38,32.6-101.19,37.15-156.44,38.17-47,.87-81.35-1-113.37-14.66-30.85-13.15-38.78-26.46-41-30.69-13.19-24.74-2.76-58.29,19.61-73.95,8.41-5.89,25.43-8.22,59.13-12.64,37-4.86,52.24-4.39,77.9-12.85,27.56-9.08,32.75-17.13,34.34-20,6.58-12-.64-22.54-7-43.14-5.36-17.42-18.33-59.57-.13-91.79,3.62-6.41,15.82-25.44,39.11-32.87,46.83-14.95,97.72,30,101.27,33.21C873.35,480.77,855.45,562.7,853.36,588.05Z" transform="translate(-175.95 -150.06)"/></g><g id="Table"><rect class="cls-6" x="401.05" y="811.94" width="727" height="240"/><rect class="cls-7" x="374.05" y="811.94" width="782" height="32" rx="16"/></g><g id="Human"><path class="cls-8" d="M1142.19,820.88l-37,15.64-1.36.56L1041,863.62V962H826.08L823,885l-.06-1.44-.79-19.93-10.61-4.5-1.6-.69L787.71,849h0l-3.39-1.45-9.12-3.86-3.65-1.55L745.16,831l-1.67-.72L722,821.14l-2.11-.9.16-.29L741,778.5l1.46-2.89L756.88,747l.65-1.29,9.64-19.12.69-1.35,4.39-8.7q2.13-4.22,4.61-8.19c.23-.41.49-.79.74-1.18A112.81,112.81,0,0,1,827.07,665c.55-.24,1.1-.49,1.66-.71A117,117,0,0,1,840.5,660a364.26,364.26,0,0,1,66.36-13.92,287.47,287.47,0,0,1,61.41-.46,232.77,232.77,0,0,1,47.46,9.89,113.52,113.52,0,0,1,43.5,25.78c.41.38.81.77,1.21,1.17a111.39,111.39,0,0,1,13,15.33c.28.41.56.8.83,1.21a107.63,107.63,0,0,1,7.57,12.93l3.22,5.8.72,1.31,18.66,33.7,3.23,5.85L1126.21,792l.72,1.31,10.53,19,.71,1.29Z" transform="translate(-175.95 -150.06)"/><path class="cls-3" d="M1060.74,682.92a18.61,18.61,0,0,1-5,.63c-8.74,0-13.12-5.11-17.36-10.07s-8.19-9.59-16.28-9.59-12.07,4.67-16.29,9.59-8.62,10.07-17.36,10.07-13.11-5.11-17.35-10.07-8.21-9.59-16.28-9.59-12.08,4.67-16.29,9.59-8.62,10.07-17.36,10.07-13.12-5.11-17.36-10.07-8.2-9.59-16.29-9.59-12.07,4.67-16.29,9.59-8.62,10.07-17.36,10.07-13.11-5.11-17.35-10.07c-2.71-3.16-5.33-6.22-9-8,.55-.23,1.09-.49,1.66-.71,3.39,2,5.92,4.9,8.39,7.79,4.23,4.93,8.21,9.58,16.29,9.58s12.08-4.65,16.29-9.58,8.63-10.08,17.36-10.08,13.12,5.12,17.36,10.08,8.2,9.58,16.29,9.58,12.06-4.65,16.29-9.58,8.62-10.08,17.36-10.08,13.1,5.12,17.34,10.08,8.2,9.58,16.29,9.58,12.07-4.65,16.29-9.58,8.63-10.08,17.36-10.08,13.12,5.12,17.35,10.08,8.2,9.58,16.29,9.58a17,17,0,0,0,3.76-.39C1059.94,682.14,1060.35,682.53,1060.74,682.92Z" transform="translate(-175.95 -150.06)"/><path class="cls-3" d="M1074.59,699.45c-.5.55-1,1.11-1.47,1.67-4.22,5-8.62,10.07-17.35,10.07s-13.12-5.11-17.36-10.07-8.19-9.59-16.28-9.59-12.07,4.66-16.29,9.59-8.62,10.07-17.36,10.07-13.11-5.11-17.35-10.07-8.21-9.59-16.28-9.59-12.08,4.66-16.29,9.59-8.62,10.07-17.36,10.07-13.12-5.11-17.36-10.07-8.2-9.59-16.29-9.59-12.07,4.66-16.29,9.59-8.62,10.07-17.36,10.07-13.11-5.11-17.35-10.07-8.21-9.59-16.29-9.59-12.07,4.66-16.28,9.59-8.62,10.07-17.36,10.07a17.25,17.25,0,0,1-9.24-2.46c.24-.4.49-.78.75-1.18a16,16,0,0,0,8.49,2.24c8.09,0,12.06-4.65,16.29-9.58s8.61-10.08,17.35-10.08,13.11,5.12,17.35,10.08,8.21,9.58,16.29,9.58,12.08-4.65,16.29-9.58,8.63-10.08,17.36-10.08,13.12,5.12,17.36,10.08,8.2,9.58,16.29,9.58,12.06-4.65,16.29-9.58,8.62-10.08,17.36-10.08,13.1,5.12,17.34,10.08,8.2,9.58,16.29,9.58,12.07-4.65,16.29-9.58,8.63-10.08,17.36-10.08,13.12,5.12,17.35,10.08,8.2,9.58,16.29,9.58,12.07-4.65,16.29-9.58c.56-.66,1.12-1.32,1.7-2C1074,698.65,1074.32,699,1074.59,699.45Z" transform="translate(-175.95 -150.06)"/><path class="cls-3" d="M1086.09,719.48c-5.94,1.06-9.36,5.08-13,9.28-4.22,4.94-8.62,10.07-17.35,10.07s-13.12-5.13-17.36-10.07-8.19-9.59-16.28-9.59-12.07,4.66-16.29,9.59-8.62,10.07-17.36,10.07-13.11-5.13-17.35-10.07-8.21-9.59-16.28-9.59-12.08,4.66-16.29,9.59-8.62,10.07-17.36,10.07-13.12-5.13-17.36-10.07-8.2-9.59-16.29-9.59-12.07,4.66-16.29,9.59-8.62,10.07-17.36,10.07-13.11-5.13-17.35-10.07-8.21-9.59-16.29-9.59-12.07,4.66-16.28,9.59-8.62,10.07-17.36,10.07-13.12-5.13-17.36-10.07l-1.55-1.8.68-1.35c.66.73,1.29,1.49,1.94,2.24,4.21,4.93,8.2,9.58,16.29,9.58s12.06-4.65,16.29-9.58,8.61-10.09,17.35-10.09,13.11,5.13,17.35,10.09,8.21,9.58,16.29,9.58,12.08-4.65,16.29-9.58,8.63-10.09,17.36-10.09,13.12,5.13,17.36,10.09,8.2,9.58,16.29,9.58,12.06-4.65,16.29-9.58,8.62-10.09,17.36-10.09,13.1,5.13,17.34,10.09,8.2,9.58,16.29,9.58,12.07-4.65,16.29-9.58,8.63-10.09,17.36-10.09,13.12,5.13,17.35,10.09,8.2,9.58,16.29,9.58,12.07-4.65,16.29-9.58c3.52-4.13,7.16-8.37,13.31-9.68Z" transform="translate(-175.95 -150.06)"/><path class="cls-3" d="M1108,759c-.78-.86-1.52-1.73-2.26-2.6-4.22-4.93-8.21-9.59-16.29-9.59s-12.07,4.66-16.3,9.59-8.62,10.07-17.35,10.07-13.12-5.11-17.36-10.07-8.19-9.59-16.28-9.59-12.07,4.66-16.29,9.59-8.62,10.07-17.36,10.07-13.11-5.11-17.35-10.07-8.21-9.59-16.28-9.59-12.08,4.66-16.29,9.59-8.62,10.07-17.36,10.07-13.12-5.11-17.36-10.07-8.2-9.59-16.29-9.59-12.07,4.66-16.29,9.59-8.62,10.07-17.36,10.07-13.11-5.11-17.35-10.07-8.21-9.59-16.29-9.59-12.07,4.66-16.28,9.59-8.62,10.07-17.36,10.07-13.12-5.11-17.36-10.07c-3.35-3.93-6.57-7.7-11.84-9l.65-1.29c5.52,1.55,8.93,5.54,12.26,9.43,4.21,4.92,8.2,9.57,16.29,9.57s12.06-4.65,16.29-9.57,8.61-10.09,17.35-10.09,13.11,5.13,17.35,10.09,8.21,9.57,16.29,9.57,12.08-4.65,16.29-9.57,8.63-10.09,17.36-10.09,13.12,5.13,17.36,10.09,8.2,9.57,16.29,9.57,12.06-4.65,16.29-9.57,8.62-10.09,17.36-10.09,13.1,5.13,17.34,10.09,8.2,9.57,16.29,9.57,12.07-4.65,16.29-9.57,8.63-10.09,17.36-10.09,13.12,5.13,17.35,10.09,8.2,9.57,16.29,9.57,12.07-4.65,16.29-9.57,8.62-10.09,17.36-10.09c7.35,0,11.64,3.64,15.32,7.75Z" transform="translate(-175.95 -150.06)"/><path class="cls-3" d="M1127.18,793.68a19.52,19.52,0,0,1-4.12.43c-8.73,0-13.11-5.13-17.35-10.07s-8.21-9.6-16.29-9.6-12.07,4.67-16.3,9.6-8.62,10.07-17.35,10.07S1042.65,789,1038.41,784s-8.19-9.6-16.28-9.6-12.07,4.67-16.29,9.6-8.62,10.07-17.36,10.07S975.37,789,971.13,784s-8.21-9.6-16.28-9.6-12.08,4.67-16.29,9.6-8.62,10.07-17.36,10.07S908.08,789,903.84,784s-8.2-9.6-16.29-9.6-12.07,4.67-16.29,9.6-8.62,10.07-17.36,10.07S840.79,789,836.55,784s-8.21-9.6-16.29-9.6S808.19,779.11,804,784s-8.62,10.07-17.36,10.07S773.5,789,769.26,784s-8.2-9.6-16.29-9.6a16.25,16.25,0,0,0-11.46,4.44L743,776a17.3,17.3,0,0,1,10-3c8.74,0,13.12,5.13,17.36,10.08s8.2,9.58,16.29,9.58,12.06-4.65,16.29-9.58S811.52,773,820.26,773s13.11,5.13,17.35,10.08,8.21,9.58,16.29,9.58,12.08-4.65,16.29-9.58S878.82,773,887.55,773s13.12,5.13,17.36,10.08,8.2,9.58,16.29,9.58,12.06-4.65,16.29-9.58S946.11,773,954.85,773s13.1,5.13,17.34,10.08,8.2,9.58,16.29,9.58,12.07-4.65,16.29-9.58S1013.4,773,1022.13,773s13.12,5.13,17.35,10.08,8.2,9.58,16.29,9.58,12.07-4.65,16.29-9.58,8.62-10.08,17.36-10.08,13.13,5.13,17.35,10.08,8.2,9.58,16.29,9.58a17.23,17.23,0,0,0,3.4-.32Z" transform="translate(-175.95 -150.06)"/><path class="cls-3" d="M1138.41,814c-3.69,4.11-8,7.76-15.35,7.76-8.73,0-13.11-5.11-17.35-10.07s-8.21-9.59-16.29-9.59-12.07,4.66-16.3,9.59-8.62,10.07-17.35,10.07-13.12-5.11-17.36-10.07-8.19-9.59-16.28-9.59-12.07,4.66-16.29,9.59-8.62,10.07-17.36,10.07-13.11-5.11-17.35-10.07-8.21-9.59-16.28-9.59-12.08,4.66-16.29,9.59-8.62,10.07-17.36,10.07-13.12-5.11-17.36-10.07-8.2-9.59-16.29-9.59-12.07,4.66-16.29,9.59-8.62,10.07-17.36,10.07-13.11-5.11-17.35-10.07-8.21-9.59-16.29-9.59-12.07,4.66-16.28,9.59-8.62,10.07-17.36,10.07-13.12-5.11-17.36-10.07-8.2-9.59-16.29-9.59-12.07,4.66-16.29,9.59c-3.68,4.3-7.47,8.72-14.11,9.82l-2.11-.9.16-.29c7.23-.47,11-4.88,15-9.54,4.24-5,8.62-10.08,17.35-10.08s13.12,5.12,17.36,10.08,8.2,9.58,16.29,9.58,12.06-4.65,16.29-9.58,8.61-10.08,17.35-10.08,13.11,5.12,17.35,10.08,8.21,9.58,16.29,9.58,12.08-4.65,16.29-9.58,8.63-10.08,17.36-10.08,13.12,5.12,17.36,10.08,8.2,9.58,16.29,9.58,12.06-4.65,16.29-9.58,8.62-10.08,17.36-10.08,13.1,5.12,17.34,10.08,8.2,9.58,16.29,9.58,12.07-4.65,16.29-9.58,8.63-10.08,17.36-10.08,13.12,5.12,17.35,10.08,8.2,9.58,16.29,9.58,12.07-4.65,16.29-9.58,8.62-10.08,17.36-10.08,13.13,5.12,17.35,10.08,8.2,9.58,16.29,9.58c7,0,11-3.5,14.64-7.66Z" transform="translate(-175.95 -150.06)"/><path class="cls-3" d="M1105.44,836.53l-1.36.56c-3.7-4.17-7.63-7.69-14.66-7.69-8.09,0-12.07,4.66-16.3,9.59s-8.62,10.07-17.35,10.07-13.12-5.13-17.36-10.07-8.19-9.59-16.28-9.59-12.07,4.66-16.29,9.59-8.62,10.07-17.36,10.07-13.11-5.13-17.35-10.07-8.21-9.59-16.28-9.59-12.08,4.66-16.29,9.59-8.62,10.07-17.36,10.07-13.12-5.13-17.36-10.07-8.2-9.59-16.29-9.59-12.07,4.66-16.29,9.59-8.62,10.07-17.36,10.07-13.11-5.13-17.35-10.07-8.21-9.59-16.29-9.59S808.19,834.06,804,839c-4,4.63-8.08,9.42-15.76,10h0q-.76.06-1.59.06c-6.85,0-11-3.16-14.56-6.91-1-1-1.88-2.1-2.8-3.16-4.21-4.93-8.2-9.59-16.29-9.59a16.28,16.28,0,0,0-7.26,1.58l-1.67-.71A17.49,17.49,0,0,1,753,828c8.74,0,13.12,5.13,17.36,10.08a44.3,44.3,0,0,0,5.38,5.62,15.75,15.75,0,0,0,9.11,3.86,15,15,0,0,0,1.8.1c8.09,0,12.06-4.65,16.29-9.58S811.52,828,820.26,828s13.11,5.13,17.35,10.08,8.21,9.58,16.29,9.58S866,843,870.19,838.07,878.82,828,887.55,828s13.12,5.13,17.36,10.08,8.2,9.58,16.29,9.58,12.06-4.65,16.29-9.58S946.11,828,954.85,828s13.1,5.13,17.34,10.08,8.2,9.58,16.29,9.58,12.07-4.65,16.29-9.58S1013.4,828,1022.13,828s13.12,5.13,17.35,10.08,8.2,9.58,16.29,9.58,12.07-4.65,16.29-9.58,8.62-10.08,17.36-10.08C1097.24,828,1101.58,832.11,1105.44,836.53Z" transform="translate(-175.95 -150.06)"/><path class="cls-3" d="M1041,868.14v2.08c-1-1.07-2-2.18-2.91-3.27-4.21-4.93-8.18-9.59-16.27-9.59s-12.08,4.66-16.29,9.59S996.9,877,988.17,877s-13.12-5.13-17.36-10.07-8.2-9.59-16.28-9.59S942.46,862,938.24,867,929.62,877,920.89,877s-13.12-5.13-17.36-10.07-8.2-9.59-16.29-9.59S875.16,862,871,867,862.32,877,853.59,877s-13.12-5.13-17.36-10.07-8.2-9.59-16.29-9.59a15.87,15.87,0,0,0-8.19,2.08l-1.6-.69a17.36,17.36,0,0,1,9.79-2.8c8.73,0,13.12,5.13,17.36,10.09s8.2,9.57,16.29,9.57S865.67,871,869.88,866,878.5,856,887.24,856s13.11,5.13,17.35,10.09,8.21,9.57,16.3,9.57S933,871,937.18,866,945.8,856,954.53,856s13.11,5.13,17.35,10.09,8.2,9.57,16.29,9.57,12.06-4.64,16.29-9.57,8.62-10.09,17.36-10.09,13.11,5.13,17.34,10.09C1039.78,866.75,1040.38,867.45,1041,868.14Z" transform="translate(-175.95 -150.06)"/><path class="cls-3" d="M1041,895.78v2.08c-1-1.07-2-2.18-2.91-3.27-4.21-4.93-8.18-9.59-16.27-9.59s-12.08,4.66-16.29,9.59-8.63,10.07-17.36,10.07-13.12-5.13-17.36-10.07-8.2-9.59-16.28-9.59-12.07,4.66-16.29,9.59-8.62,10.07-17.35,10.07-13.12-5.13-17.36-10.07-8.2-9.59-16.29-9.59-12.08,4.66-16.29,9.59-8.63,10.07-17.36,10.07-13.12-5.13-17.36-10.07c-3.61-4.22-7.05-8.25-13-9.3l-.06-1.45c6.67,1.09,10.46,5.52,14.16,9.83,4.22,4.93,8.2,9.58,16.29,9.58s12.08-4.65,16.29-9.58,8.62-10.08,17.36-10.08,13.11,5.13,17.35,10.08,8.21,9.58,16.3,9.58,12.06-4.65,16.29-9.58,8.62-10.08,17.35-10.08,13.11,5.13,17.35,10.08,8.2,9.58,16.29,9.58,12.06-4.65,16.29-9.58,8.62-10.08,17.36-10.08,13.11,5.13,17.34,10.08C1039.78,894.39,1040.38,895.09,1041,895.78Z" transform="translate(-175.95 -150.06)"/><polygon class="cls-9" points="647.05 713.87 537.83 668 549.54 644.05 647.05 688.79 647.05 713.87"/><polygon class="cls-9" points="865.69 713.87 975.15 667.54 961.54 642.85 866.05 684.38 865.69 713.87"/><path class="cls-10" d="M933.19,687.92c-.65-.12-1.3-.26-1.92-.42a27.65,27.65,0,0,1-17.43-13.16A28.18,28.18,0,0,1,910.15,658l2.69-34H962l.45,3.87,3.38,29C968,675.49,951.63,691.43,933.19,687.92Z" transform="translate(-175.95 -150.06)"/><path class="cls-11" d="M962,627.87h0s-19.87,30.34-45.58,10.41a132.76,132.76,0,0,0-3,36.05A28.19,28.19,0,0,1,909.7,658l2.7-34h49.15Z" transform="translate(-175.95 -150.06)"/><path class="cls-10" d="M983.05,568.57c-2.65,26.08-11.66,65.85-41.79,70.67a19.23,19.23,0,0,1-7.63-.32c-10.57-2.56-36.06-14.79-38.74-73.15a50,50,0,0,1,22.55-44.31c11.22-7.32,26-10.87,42.83,0A49.94,49.94,0,0,1,983.05,568.57Z" transform="translate(-175.95 -150.06)"/><path class="cls-11" d="M936.87,605.29a5.48,5.48,0,0,0,1.66-.28,1,1,0,0,0,.69-1.32,1.06,1.06,0,0,0-1.32-.69c-1.38.44-1.79,0-1.92-.15-2.13-2.29,1.1-13.84,4.07-21.32a1.05,1.05,0,1,0-2-.78c-1.27,3.21-7.45,19.44-3.66,23.53A3.19,3.19,0,0,0,936.87,605.29Z" transform="translate(-175.95 -150.06)"/><ellipse class="cls-12" cx="961.94" cy="596.84" rx="9.25" ry="5.15" transform="translate(-213.49 -84.8) rotate(-3.81)"/><path class="cls-11" d="M969.47,571.89a26.47,26.47,0,0,0-4.91-1.85,23.72,23.72,0,0,0-5.31-.81,17.06,17.06,0,0,0-5.51.76,14.73,14.73,0,0,0-4.83,2.72,1.4,1.4,0,0,0-.13,2.14,1.86,1.86,0,0,0,2.4.12l.06-.05.12-.11a11,11,0,0,1,3.52-2.29,13.65,13.65,0,0,1,4.38-.87,20.81,20.81,0,0,1,4.69.44,24.81,24.81,0,0,1,4.53,1.38l0,0a1.08,1.08,0,0,0,1.36-.42A.86.86,0,0,0,969.47,571.89Z" transform="translate(-175.95 -150.06)"/><ellipse class="cls-11" cx="957.5" cy="584" rx="4.01" ry="2.49" transform="translate(131.41 1347.83) rotate(-85.95)"/><ellipse class="cls-12" cx="917.06" cy="596.84" rx="5.15" ry="9.25" transform="translate(84.63 1322.15) rotate(-86.19)"/><path class="cls-11" d="M909.53,571.89a26.64,26.64,0,0,1,4.9-1.85,23.81,23.81,0,0,1,5.31-.81,17.09,17.09,0,0,1,5.52.76,14.68,14.68,0,0,1,4.82,2.72,1.41,1.41,0,0,1,.14,2.14,1.86,1.86,0,0,1-2.4.12l-.07-.05-.11-.11a11.15,11.15,0,0,0-3.52-2.29,13.65,13.65,0,0,0-4.38-.87,20.76,20.76,0,0,0-4.69.44,24.57,24.57,0,0,0-4.53,1.38l0,0a1.08,1.08,0,0,1-1.36-.42A.86.86,0,0,1,909.53,571.89Z" transform="translate(-175.95 -150.06)"/><ellipse class="cls-11" cx="921.5" cy="584" rx="2.49" ry="4.01" transform="matrix(1, -0.07, 0.07, 1, -214.88, -83.55)"/><path class="cls-10" d="M897.4,569.1h0a11.76,11.76,0,0,0-11.48,14.32L888,592.8a11.76,11.76,0,0,0,11.48,9.2h3S907.68,579,897.4,569.1Z" transform="translate(-175.95 -150.06)"/><path class="cls-10" d="M981.38,569.1h0a11.76,11.76,0,0,1,11.48,14.32l-2.09,9.38a11.76,11.76,0,0,1-11.48,9.2h-3S971.1,579,981.38,569.1Z" transform="translate(-175.95 -150.06)"/><path class="cls-11" d="M938.16,621.3c8.11,0,14.51-5.75,14.83-6l-1.42-1.56c-.09.09-9,8-18.34,4.64l-.72,2A16.77,16.77,0,0,0,938.16,621.3Z" transform="translate(-175.95 -150.06)"/><path class="cls-11" d="M895.1,569.51l3.43,19s6.28-14.95,6.28-31.85a166.81,166.81,0,0,0,60.7,3.18c14.43-2,23.48-3.33,30.46-10.62,16.21-16.93,9.93-54-4-59.46-9.28-3.64-16.67,8.9-43.09,19.32a140.43,140.43,0,0,1-40.37,9.23,15.71,15.71,0,0,0-7.45,2.16C890.72,526.76,888.45,546.46,895.1,569.51Z" transform="translate(-175.95 -150.06)"/><path class="cls-11" d="M984.93,555.1l-5,33.46s-6.44-16-6-32.07S984.93,555.1,984.93,555.1Z" transform="translate(-175.95 -150.06)"/><path class="cls-11" d="M893.85,594.87l1.73-1.21c-5-7.24-5.11-11-4.29-12.95a4.88,4.88,0,0,1,3.57-2.64l-.28-2.09a7,7,0,0,0-5.21,3.87C887.84,583.34,889.35,588.39,893.85,594.87Z" transform="translate(-175.95 -150.06)"/><path class="cls-11" d="M984.93,594.87c4.5-6.48,6-11.53,4.48-15a7,7,0,0,0-5.2-3.87l-.29,2.09a4.88,4.88,0,0,1,3.57,2.64c.82,1.91.75,5.71-4.29,12.95Z" transform="translate(-175.95 -150.06)"/><path class="cls-10" d="M1136.66,823.58l21.68,68.53c11.34,35.83-17,71.89-56.48,71.89H909.31l7.05-42.23c2-12.06,14.64-19.8,27.09-16.6l40.79,10.5,55.84-11.45,1.6-40.35Z" transform="translate(-175.95 -150.06)"/><rect class="cls-11" x="1039" y="894.76" width="68.19" height="2.05" transform="translate(-365.64 146.28) rotate(-14.46)"/><polygon class="cls-11" points="865.73 713.88 963.25 681.62 960.71 673.6 865.73 713.88"/><path class="cls-10" d="M727.69,823.58,706,892.11C694.67,927.94,723,964,762.49,964H955l-7-42.23c-2-12.06-14.64-19.8-27.08-16.6l-40.8,10.5-55.84-11.45-1.6-40.35Z" transform="translate(-175.95 -150.06)"/><rect class="cls-11" x="790.23" y="861.69" width="2.05" height="68.19" transform="translate(-449.6 1288.4) rotate(-75.55)"/><polygon class="cls-11" points="646.73 713.88 549.21 681.62 551.75 673.6 646.73 713.88"/><rect class="cls-11" x="646.05" y="592.94" width="2" height="121"/><rect class="cls-11" x="865.05" y="592.94" width="2" height="121"/><path class="cls-11" d="M956.07,964H954c0-34.12-7.43-48-13.66-53.7-4.69-4.27-8.77-3.94-8.81-3.93l-.2-2c.21,0,5-.42,10.39,4.45C948.28,914.73,956.07,929.13,956.07,964Z" transform="translate(-175.95 -150.06)"/><path class="cls-6" d="M919.83,601.89c-9,0-16.32-8.1-16.32-18s7.32-18.06,16.32-18.06,16.32,8.1,16.32,18.06S928.83,601.89,919.83,601.89Zm0-32.88c-7.22,0-13.09,6.65-13.09,14.83s5.87,14.82,13.09,14.82,13.09-6.65,13.09-14.82S927.05,569,919.83,569Z" transform="translate(-175.95 -150.06)"/><path class="cls-6" d="M959.17,601.89c-9,0-16.32-8.1-16.32-18s7.32-18.06,16.32-18.06,16.32,8.1,16.32,18.06S968.17,601.89,959.17,601.89Zm0-32.88c-7.22,0-13.09,6.65-13.09,14.83s5.87,14.82,13.09,14.82,13.09-6.65,13.09-14.82S966.38,569,959.17,569Z" transform="translate(-175.95 -150.06)"/><path class="cls-6" d="M944,584c-5.2-1.8-8.62-.15-8.77-.08l-1.47-2.88c.19-.1,4.72-2.38,11.3-.09Z" transform="translate(-175.95 -150.06)"/><rect class="cls-6" x="971.06" y="571.18" width="13.48" height="3.23" transform="translate(-319 589.73) rotate(-38.84)"/><rect class="cls-6" x="899.16" y="566.46" width="3.23" height="13.61" transform="translate(-250.56 857.55) rotate(-56.48)"/><polygon class="cls-9" points="736.09 483.86 721.27 497.73 748.03 550.6 760.3 538.1 736.09 483.86"/><polygon class="cls-9" points="787.23 483.86 760.3 538.1 773.77 550.6 802.22 497.24 787.23 483.86"/><rect class="cls-11" x="827.01" y="794.94" width="215.99" height="2.12" transform="translate(-45.36 1573.72) rotate(-89.48)"/></g><g id="Book"><path class="cls-13" d="M1096,962h182.38a25.48,25.48,0,0,0,25.48-25.48v0A25.48,25.48,0,0,0,1278.38,911H1096Z" transform="translate(-175.95 -150.06)"/><path class="cls-3" d="M1114.82,917H1296a0,0,0,0,1,0,0v38a0,0,0,0,1,0,0H1114.82A18.82,18.82,0,0,1,1096,936.18v-.37A18.82,18.82,0,0,1,1114.82,917Z" transform="translate(2216.05 1721.94) rotate(180)"/><rect class="cls-11" x="920.05" y="774.94" width="197" height="2"/><rect class="cls-11" x="919.05" y="797.94" width="196" height="2"/><rect class="cls-11" x="920.05" y="784.94" width="200" height="2"/><path class="cls-14" d="M1137.87,871H1280a0,0,0,0,1,0,0v40a0,0,0,0,1,0,0H1137.87A19.87,19.87,0,0,1,1118,891.13v-.27A19.87,19.87,0,0,1,1137.87,871Z" transform="translate(2222.05 1631.94) rotate(-180)"/><path class="cls-3" d="M1133.5,877H1275a0,0,0,0,1,0,0v29a0,0,0,0,1,0,0H1133.5a14.5,14.5,0,0,1-14.5-14.5v0A14.5,14.5,0,0,1,1133.5,877Z" transform="translate(2218.05 1632.94) rotate(180)"/><rect class="cls-11" x="942.05" y="731.94" width="154" height="2"/><rect class="cls-11" x="942.05" y="749.94" width="153" height="2"/><rect class="cls-11" x="943.05" y="739.94" width="156" height="2"/></g><g id="Laptop"><path class="cls-14" d="M1025.57,964H838.32A10.43,10.43,0,0,1,828,954.66L814.37,825.52A10.43,10.43,0,0,1,824.74,814h214.41a10.44,10.44,0,0,1,10.38,11.52l-13.59,129.14A10.42,10.42,0,0,1,1025.57,964Z" transform="translate(-175.95 -150.06)"/><circle class="cls-3" cx="756.05" cy="739.94" r="25"/></g><g id="Flower"><rect class="cls-15" x="470.04" y="566.94" width="7.03" height="94"/><path class="cls-13" d="M638.16,685.49s10.65-28.53,21.72,0C659.88,685.49,648.58,706,638.16,685.49Z" transform="translate(-175.95 -150.06)"/><path class="cls-13" d="M634,683.09a5.49,5.49,0,0,0-8.14,4.71,59,59,0,0,0,4.64,23.77c2.37,5.54,8.89,20.82,18.48,20.84s16.2-15.24,18.52-20.58a58.39,58.39,0,0,0,4.68-24.08,5.42,5.42,0,0,0-7.9-4.79,32,32,0,0,1-30.28.13Z" transform="translate(-175.95 -150.06)"/><path class="cls-16" d="M686,931.39l-10.42,29.46a1.53,1.53,0,0,1-1.39,1.15H624.11a1.41,1.41,0,0,1-.92-.37,1.83,1.83,0,0,1-.47-.78L612.3,931.32a132.14,132.14,0,0,1,0-86.46l0-.06a132.41,132.41,0,0,0,5.7-63.46v0c-.17-1.22.54-2.31,1.49-2.31h59.28a1.85,1.85,0,0,1,1.5,2.31c-.24,1.59-.44,3.19-.65,4.78a139.24,139.24,0,0,0-.88,15.41,131.1,131.1,0,0,0,7.3,43.33A132.38,132.38,0,0,1,686,931.39Z" transform="translate(-175.95 -150.06)"/><ellipse class="cls-3" cx="473.05" cy="733.94" rx="19" ry="34"/></g></g><g id="Line"><polygon class="cls-17" points="1018.05 214.94 1012.05 214.94 1012.05 36.94 866.05 36.94 866.05 30.94 1018.05 30.94 1018.05 214.94"/><polygon class="cls-17" points="422.05 459.94 240.05 459.94 240.05 390.94 246.05 390.94 246.05 453.94 422.05 453.94 422.05 459.94"/><circle class="cls-18" cx="421.55" cy="454.44" r="11.5"/><circle class="cls-19" cx="507.55" cy="111.44" r="11.5"/><ellipse class="cls-20" cx="863.3" cy="30.94" rx="11.25" ry="11.5"/><polygon class="cls-17" points="502.05 108.94 320.05 108.94 320.05 177.94 326.05 177.94 326.05 114.94 502.05 114.94 502.05 108.94"/></g><path class="cls-21" d="M288.13,373.09H262.38a6.07,6.07,0,1,1,0-12.11h25.75a6.07,6.07,0,1,1,0,12.11Z" transform="translate(-175.95 -150.06)"/><path class="cls-3" d="M380.89,373.09H355.14a6.07,6.07,0,1,1,0-12.11h25.75a6.07,6.07,0,1,1,0,12.11Z" transform="translate(-175.95 -150.06)"/><path class="cls-3" d="M380.89,435.83H355.14a6.07,6.07,0,1,1,0-12.11h25.75a6.07,6.07,0,1,1,0,12.11Z" transform="translate(-175.95 -150.06)"/><path class="cls-3" d="M453.87,391.8H434.55a6.06,6.06,0,1,1,0-12.1h19.32a6.06,6.06,0,1,1,0,12.1Z" transform="translate(-175.95 -150.06)"/><path class="cls-3" d="M529,470h-15.8a5,5,0,1,1,0-9.91H529a5,5,0,1,1,0,9.91Z" transform="translate(-175.95 -150.06)"/><path class="cls-3" d="M387.61,510.68H368.3a6.06,6.06,0,1,1,0-12.1h19.31a6.06,6.06,0,1,1,0,12.1Z" transform="translate(-175.95 -150.06)"/><path class="cls-22" d="M467.12,410.52H447.8a6.07,6.07,0,1,1,0-12.11h19.32a6.07,6.07,0,1,1,0,12.11Z" transform="translate(-175.95 -150.06)"/><path class="cls-22" d="M467.12,473.26H447.8a6.07,6.07,0,1,1,0-12.11h19.32a6.07,6.07,0,1,1,0,12.11Z" transform="translate(-175.95 -150.06)"/><path class="cls-3" d="M518,418.22H496.92a5,5,0,1,1,0-9.91H518a5,5,0,1,1,0,9.91Z" transform="translate(-175.95 -150.06)"/><path class="cls-21" d="M288.13,435.83H262.38a6.07,6.07,0,1,1,0-12.11h25.75a6.07,6.07,0,1,1,0,12.11Z" transform="translate(-175.95 -150.06)"/><path class="cls-21" d="M301.38,391.8H275.63a6.06,6.06,0,1,1,0-12.1h25.75a6.06,6.06,0,1,1,0,12.1Z" transform="translate(-175.95 -150.06)"/><path class="cls-23" d="M413.74,391.8H368.67a6.06,6.06,0,1,1,0-12.1h45.07a6.06,6.06,0,1,1,0,12.1Z" transform="translate(-175.95 -150.06)"/><path class="cls-23" d="M453.49,510.68H408.43a6.06,6.06,0,1,1,0-12.1h45.06a6.06,6.06,0,1,1,0,12.1Z" transform="translate(-175.95 -150.06)"/><path class="cls-22" d="M413.74,492H368.67a6.07,6.07,0,1,1,0-12.11h45.07a6.07,6.07,0,1,1,0,12.11Z" transform="translate(-175.95 -150.06)"/><path class="cls-23" d="M394.14,454.55H368.39a6.07,6.07,0,1,1,0-12.11h25.75a6.07,6.07,0,1,1,0,12.11Z" transform="translate(-175.95 -150.06)"/><path class="cls-3" d="M426.8,410.52H368.86a6.07,6.07,0,1,1,0-12.11H426.8a6.07,6.07,0,1,1,0,12.11Z" transform="translate(-175.95 -150.06)"/><path class="cls-3" d="M473.18,454.55H415.24a6.07,6.07,0,1,1,0-12.11h57.94a6.07,6.07,0,1,1,0,12.11Z" transform="translate(-175.95 -150.06)"/><path class="cls-3" d="M426.8,473.26H368.86a6.07,6.07,0,1,1,0-12.11H426.8a6.07,6.07,0,1,1,0,12.11Z" transform="translate(-175.95 -150.06)"/><path class="cls-21" d="M294.85,410.52H275.54a6.07,6.07,0,1,1,0-12.11h19.31a6.07,6.07,0,1,1,0,12.11Z" transform="translate(-175.95 -150.06)"/><path class="cls-21" d="M307.91,454.55H275.72a6.07,6.07,0,1,1,0-12.11h32.19a6.07,6.07,0,1,1,0,12.11Z" transform="translate(-175.95 -150.06)"/><path class="cls-21" d="M288.32,473.26H275.44a6.07,6.07,0,1,1,0-12.11h12.88a6.07,6.07,0,1,1,0,12.11Z" transform="translate(-175.95 -150.06)"/><path class="cls-21" d="M301.38,492H275.63a6.07,6.07,0,1,1,0-12.11h25.75a6.07,6.07,0,1,1,0,12.11Z" transform="translate(-175.95 -150.06)"/><path class="cls-3" d="M486.53,492H435a6.07,6.07,0,1,1,0-12.11h51.51a6.07,6.07,0,1,1,0,12.11Z" transform="translate(-175.95 -150.06)"/><path class="cls-21" d="M294.85,510.68H275.54a6.06,6.06,0,1,1,0-12.1h19.31a6.06,6.06,0,1,1,0,12.1Z" transform="translate(-175.95 -150.06)"/><path class="cls-24" d="M566.81,306.48a6.23,6.23,0,0,0-6.22,6.23v49.7l9.19-6.86a12.48,12.48,0,0,1,7.45-2.47H629.4a6.22,6.22,0,0,0,6.23-6.22V312.71a6.23,6.23,0,0,0-6.23-6.23Z" transform="translate(-175.95 -150.06)"/><path class="cls-2" d="M563.75,312.75v43.37l4.19-3.12a15.56,15.56,0,0,1,9.29-3.08h52.13a3.11,3.11,0,0,0,3.11-3.11V312.75a3.11,3.11,0,0,0-3.11-3.11h-62.5A3.11,3.11,0,0,0,563.75,312.75Zm-3.22,52.83a3.13,3.13,0,0,1-2.35-1.07,3.23,3.23,0,0,1-.75-2.14V312.66a9.34,9.34,0,0,1,9.34-9.34h61.89a9.34,9.34,0,0,1,9.34,9.34V346.9a9.34,9.34,0,0,1-9.34,9.34H577.08a9.28,9.28,0,0,0-5.62,1.89L562.39,365A3.1,3.1,0,0,1,560.53,365.58Z" transform="translate(-175.95 -150.06)"/><path class="cls-2" d="M189.44,325.6c0-4.8,3-8.94,8.74-8.94a8.12,8.12,0,0,1,5.7,2.22,1.62,1.62,0,1,1-2.22,2.34,4.28,4.28,0,0,0-3.48-1.37c-3.83,0-5.67,2.71-5.67,5.75s1.81,5.93,5.67,5.93a5.83,5.83,0,0,0,3.89-1.6,1.66,1.66,0,0,1,2.28.3,1.72,1.72,0,0,1-.27,2.34,8.13,8.13,0,0,1-5.9,1.94C192.16,334.51,189.44,330.41,189.44,325.6Z" transform="translate(-175.95 -150.06)"/><path class="cls-2" d="M207.3,320.85c.57-4.83,7.87-5.7,11.3-3.06a1.45,1.45,0,1,1-1.59,2.43c-1.84-1.17-6-1.71-6.55.87-.67,4.09,10.16,1.75,10,8.37-.17,6.32-9.33,6.47-12.77,3.63a1.84,1.84,0,0,1-.34-2.44,1.46,1.46,0,0,1,2.21-.17c2,1.39,7.3,2.44,7.67-1.1C216.88,325.7,206.53,327.92,207.3,320.85Z" transform="translate(-175.95 -150.06)"/><path class="cls-2" d="M223,320.85c.57-4.83,7.86-5.7,11.3-3.06a1.46,1.46,0,1,1-1.6,2.43c-1.84-1.17-6-1.71-6.54.87-.67,4.09,10.15,1.75,10,8.37-.17,6.32-9.33,6.47-12.77,3.63a1.84,1.84,0,0,1-.35-2.44,1.48,1.48,0,0,1,2.22-.17c2,1.39,7.29,2.44,7.66-1.1C232.6,325.7,222.24,327.92,223,320.85Z" transform="translate(-175.95 -150.06)"/><path class="cls-2" d="M600.81,323.87c.57-4.83,7.87-5.7,11.3-3.06a1.45,1.45,0,1,1-1.59,2.43c-1.84-1.16-6-1.71-6.55.88-.67,4.08,10.16,1.74,10,8.36-.17,6.32-9.33,6.47-12.77,3.63a1.85,1.85,0,0,1-.35-2.44,1.48,1.48,0,0,1,2.22-.17c2,1.39,7.29,2.44,7.67-1.1C610.39,328.72,600,330.94,600.81,323.87Z" transform="translate(-175.95 -150.06)"/><path class="cls-25" d="M273.2,577.84a6.23,6.23,0,0,0,6.23-6.23v-49.7l-9.09,6.83a12.46,12.46,0,0,1-7.48,2.5h-64.1a6.22,6.22,0,0,0-6.22,6.22v34.15a6.23,6.23,0,0,0,6.22,6.23Z" transform="translate(-175.95 -150.06)"/><path class="cls-2" d="M273.25,581H198.72a9.34,9.34,0,0,1-9.34-9.34V537.42a9.34,9.34,0,0,1,9.34-9.34H262.9a9.31,9.31,0,0,0,5.61-1.88l9.11-6.84a3.11,3.11,0,0,1,4.05.27,3.21,3.21,0,0,1,.92,2.32v49.71A9.34,9.34,0,0,1,273.25,581ZM195.7,537.51v34.06a3.11,3.11,0,0,0,3.11,3.11h74.35a3.11,3.11,0,0,0,3.11-3.11V528.2l-4.11,3.08a15.58,15.58,0,0,1-9.34,3.11h-64A3.12,3.12,0,0,0,195.7,537.51Z" transform="translate(-175.95 -150.06)"/><path class="cls-2" d="M203.6,560.21V546.52a1.5,1.5,0,0,1,1.7-1.5,1.44,1.44,0,0,1,1.46,1.5v5.25h7.9v-5A1.77,1.77,0,0,1,216.3,545a1.47,1.47,0,0,1,1.52,1.5v13.57a1.58,1.58,0,0,1-3.16.12v-5.28h-7.9v5.23a1.58,1.58,0,0,1-3.16.05Z" transform="translate(-175.95 -150.06)"/><path class="cls-2" d="M226.5,547.82h-4.18a1.58,1.58,0,0,1,0-3.16h11.32a1.58,1.58,0,1,1,0,3.16h-4v12.47a1.58,1.58,0,1,1-3.16,0Z" transform="translate(-175.95 -150.06)"/><path class="cls-2" d="M240.72,551v9.35A1.65,1.65,0,0,1,239,562a1.49,1.49,0,0,1-1.44-1.65V546.22a1.69,1.69,0,0,1,1.53-1.75,2.07,2.07,0,0,1,1.59.92l5.59,7.53,5.78-7.82a1.65,1.65,0,0,1,2.89,1.12v14a1.58,1.58,0,0,1-1.53,1.75,1.6,1.6,0,0,1-1.63-1.75V551l-4.28,5.41a1.7,1.7,0,0,1-2.94,0Z" transform="translate(-175.95 -150.06)"/><path class="cls-2" d="M258.1,546.79a1.57,1.57,0,0,1,1.63-1.47,1.53,1.53,0,0,1,1.53,1.47v12.09h7c2.54,0,2.59,3.16,0,3.16h-8.57a1.52,1.52,0,0,1-1.63-1.47Z" transform="translate(-175.95 -150.06)"/><path class="cls-26" d="M948.93,206.14a48.42,48.42,0,0,0-9.07.88,39.39,39.39,0,0,0,1.07-8.88,39.87,39.87,0,0,0-78.06-11.58,39.54,39.54,0,0,0-17.9-4.41,40,40,0,0,0-40,40c0,.28.08.54.08.82a41.51,41.51,0,0,0-21.77,1.48,38.29,38.29,0,0,0-24.16,24.43c-8.94,27.7,11.47,53.24,37.85,53.24H948.17c25.64,0,47.35-19.82,48.68-45.43A48,48,0,0,0,948.93,206.14Z" transform="translate(-175.95 -150.06)"/><path class="cls-2" d="M953.75,310H792.88a41.5,41.5,0,0,1-35.68-19.86c-22.51-37.58,4.72-76.66,40.45-76.1a48.06,48.06,0,0,1,47.32-40,46.11,46.11,0,0,1,13.49,2,47.51,47.51,0,0,1,42.49-26,48,48,0,0,1,48,48c41,0,71.92,44.41,47.08,87.71A48.64,48.64,0,0,1,953.75,310ZM797,230.23c-24.09,0-42,26.76-25.7,52.11a26.13,26.13,0,0,0,22,11.87H953.74a32.64,32.64,0,0,0,27.71-15.29c21.12-33.83-5.86-70.45-40.09-63.94a8.09,8.09,0,0,1-9.5-6.91,6.28,6.28,0,0,1,.13-2.4A31.86,31.86,0,0,0,870.52,189a8,8,0,0,1-11.25,4.81,31.56,31.56,0,0,0-14.3-3.55,32,32,0,0,0-32,31.58c0,.33.07.67.08,1a8,8,0,0,1-9.61,8.06A31.78,31.78,0,0,0,797,230.23Z" transform="translate(-175.95 -150.06)"/><path class="cls-27" d="M971.67,223.25a39,39,0,0,1,7.83,27.2c-1.89,20.47-19.58,35.86-40.14,35.86h-162a31.29,31.29,0,0,0,20.67,7.9H947.3c21.56,0,39.74-17,40.25-38.53A39.29,39.29,0,0,0,971.67,223.25Z" transform="translate(-175.95 -150.06)"/><path class="cls-2" d="M996.91,262a8,8,0,0,1-8-8,40,40,0,0,0-73.31-22.11,8,8,0,1,1-13.32-8.84A56,56,0,0,1,1004.91,254,8,8,0,0,1,996.91,262Z" transform="translate(-175.95 -150.06)"/><path class="cls-2" d="M881.62,214a8,8,0,0,1-7.33-4.79A32,32,0,0,0,845,190a8,8,0,1,1,0-16,48,48,0,0,1,44,28.76,8,8,0,0,1-4.11,10.54A8.14,8.14,0,0,1,881.62,214Z" transform="translate(-175.95 -150.06)"/><path class="cls-2" d="M833.66,254a8,8,0,0,1-7.34-4.79A32,32,0,0,0,797,230a8,8,0,0,1,0-16,48,48,0,0,1,44,28.8,8,8,0,0,1-4.13,10.53A7.88,7.88,0,0,1,833.66,254Z" transform="translate(-175.95 -150.06)"/><path class="cls-2" d="M901,310a32,32,0,0,1-32-32,8,8,0,1,1,16,0,16,16,0,0,0,16,16,8,8,0,0,1,0,16Z" transform="translate(-175.95 -150.06)"/><path class="cls-3" d="M1070.51,514.89a9,9,0,0,1-9-9v-201h328v201a9,9,0,0,1-9,9Z" transform="translate(-175.95 -150.06)"/><path class="cls-28" d="M1388.51,305.89v200a8,8,0,0,1-8,8h-310a8,8,0,0,1-8-8v-200h326m2-2h-330v202a10,10,0,0,0,10,10h310a10,10,0,0,0,10-10v-202Z" transform="translate(-175.95 -150.06)"/><path class="cls-19" d="M1390.51,317.49h-330v-22.6a10,10,0,0,1,10-10h310a10,10,0,0,1,10,10Z" transform="translate(-175.95 -150.06)"/><path class="cls-29" d="M1197.41,362.09s7.6-38.1-1.6-62.5c-6.5-17.1-30.5-38.3-18.3-67.8,11.4-27.7,50-1.7,69.5,3.6s26.9,18.8,20.2,61.6c-2.4,15.2-2,30.5,31.6,46.4s18.5,79.6-32.9,56.2C1226.31,381.39,1185.31,409.69,1197.41,362.09Z" transform="translate(-175.95 -150.06)"/><polygon class="cls-30" points="1080.66 201.14 1070.16 239.74 1026.46 209.54 1043.96 197.64 1043.76 186.34 1043.86 179.54 1044.36 153.04 1075.56 135.34 1080.66 201.14"/><path class="cls-31" d="M1095.31,309.69a56.12,56.12,0,0,1,31.1-2.5S1106.51,322.09,1095.31,309.69Z" transform="translate(-175.95 -150.06)"/><path class="cls-30" d="M1130.91,283l-8.1,11.8,1.2,20.6-24.8,4-1-14.8-3.8-13.2a15.56,15.56,0,0,1-.1-2c.4-4,4.4-2.7,4.4-2.7a8.81,8.81,0,0,1,.2-1.7,1.42,1.42,0,0,1,.2-.6c1.2-3.5,5.3-1.2,5.3-1.2a8.27,8.27,0,0,1,.1-2.3c.1-.2.1-.5.2-.7,1.3-3.3,5.6-1.9,5.6-1.9V278l-2.9-24.1a3.82,3.82,0,0,1,3.6-4.3,3.92,3.92,0,0,1,4.1,3.3l5.1,32.2,4.2-5.4c1.3-2.1,3.5-2.8,5.4-1.7C1131.51,278.89,1131.81,281.29,1130.91,283Z" transform="translate(-175.95 -150.06)"/><path class="cls-30" d="M1112.11,290.39a3.46,3.46,0,0,1-4.1-1.9c0-.1-.1-.2-.1-.3l-2-6.8h0a2.46,2.46,0,0,1-.1-1.2c1.4-3.3,5.7-1.8,5.7-1.8v-.3a3.77,3.77,0,0,1,.9,1.5l2,6.8A3.27,3.27,0,0,1,1112.11,290.39Z" transform="translate(-175.95 -150.06)"/><path class="cls-30" d="M1101.81,291.09a3,3,0,0,1-5.9.5l-.8-2.6c.4-3.9,4.6-3.6,4.6-3.6a2.54,2.54,0,0,1,.3-1.2l1.7,5.7A1.67,1.67,0,0,1,1101.81,291.09Z" transform="translate(-175.95 -150.06)"/><path class="cls-30" d="M1105.71,292.59a3.31,3.31,0,0,1-3.9-1.6c-.1-.2-.2-.5-.3-.7l-1.7-5.7c.1-.2.1-.4.2-.6a4.34,4.34,0,0,1,5.9-2.5l2,6.8A3.32,3.32,0,0,1,1105.71,292.59Z" transform="translate(-175.95 -150.06)"/><path class="cls-17" d="M1332.21,449.59c-2.5-29.5-7.2-74.2-7.2-74.2a32.08,32.08,0,0,0-30.6-28.4l-37.4-1.3h-.5c.6,14.4-17.4,28.8-33.2,22.6-14.9-5.7-4.1-19.7-2.7-21.5-21.1,3.1-44.6,13.5-39.8,54.6,2.8,23.8,2.5,94.2,2.4,112.6h107.9c.1-1.1.9-25.9,1-26.8,5.4.4,10,.7,12.8,1C1317.41,489.29,1335.21,485.19,1332.21,449.59Z" transform="translate(-175.95 -150.06)"/><path class="cls-17" d="M1220,347.69l-19.7.5a50.68,50.68,0,0,0-29.7,10.6l-30.3,23.6-14-75.2s-16,6.8-31.1,2.5c-.2,0,5.9,82.6,15.9,111.7,8.8,25.6,90.6-17.6,90.6-17.6l11.3-52.2Z" transform="translate(-175.95 -150.06)"/><polygon class="cls-19" points="1033.56 341.74 964.56 338.64 964.56 244.94 1033.56 248.04 1033.56 341.74"/><path class="cls-31" d="M1231,449.69s-11,5.7-5.4,34.1C1225.61,483.69,1235.31,472,1231,449.69Z" transform="translate(-175.95 -150.06)"/><path class="cls-30" d="M1209.61,450.69l-19.3-2.6a3.38,3.38,0,0,0-4.1,2.4h0a3.32,3.32,0,0,0,3,4l15.8,3.3-22.3-2.4a3.13,3.13,0,0,0-3.5,2.6v.1a3.14,3.14,0,0,0,2.7,3.5L1205,465l-16.4-1.1a2.86,2.86,0,0,0-.5,5.7l16.2,2.2c0,.2-11.2-.3-11.2-.3a2.86,2.86,0,0,0-.5,5.7l24.8.3,10.3,2.7a40.16,40.16,0,0,0,3.6-11.7,48.92,48.92,0,0,0,.1-14.7l-8.4-1.7-13.8-9.6C1209.51,442.29,1209.61,450.69,1209.61,450.69Z" transform="translate(-175.95 -150.06)"/><path class="cls-31" d="M1275.31,451.19c13.6-19.6,16.7-45.5,16.7-45.5l1,47S1275.31,451.29,1275.31,451.19Z" transform="translate(-175.95 -150.06)"/><path class="cls-32" d="M1226.61,483.69s48.2,3.1,69.9,4.7" transform="translate(-175.95 -150.06)"/><path class="cls-32" d="M1292.21,452.69s-60.8-2.3-60.8-2.2" transform="translate(-175.95 -150.06)"/><path class="cls-30" d="M1260.51,279.19c-4.5-5.1-9.6-.6-9.6-.6s-1.1-8.5-10.1-8.5-40.8,7-52.7-16.2c0,0-3.4,22.5-1.1,41.3,1.9,15.4,5,30.3,29.7,34.1,33.2,5.1,34.1-25.4,34.1-25.4l.6-11.5C1261.11,295.49,1265,284.19,1260.51,279.19Z" transform="translate(-175.95 -150.06)"/><path class="cls-33" d="M1236.91,327.79s-7.5,9.3-17.1,8.7l.1-6.8C1220.71,329.69,1230.91,330,1236.91,327.79Z" transform="translate(-175.95 -150.06)"/><line class="cls-34" x1="928.46" y1="131.64" x2="931.86" y2="142.44"/><line class="cls-34" x1="922.86" y1="135.74" x2="925.36" y2="143.44"/><line class="cls-34" x1="934.26" y1="128.24" x2="937.06" y2="137.34"/><ellipse class="cls-35" cx="910.43" cy="354.68" rx="37.12" ry="34.7"/><path class="cls-2" d="M1086.46,549.62c-26.17,0-47.46-20-47.46-44.63s21.29-44.63,47.46-44.63,47.47,20,47.47,44.63S1112.64,549.62,1086.46,549.62Zm0-79.34c-20.35,0-36.91,15.57-36.91,34.71s16.56,34.72,36.91,34.72,36.92-15.58,36.92-34.72S1106.82,470.28,1086.46,470.28Z" transform="translate(-175.95 -150.06)"/><path class="cls-3" d="M1081.19,519.87a5.42,5.42,0,0,1-3.73-1.45l-10.55-9.92a4.75,4.75,0,0,1,0-7,5.51,5.51,0,0,1,7.46,0l6.82,6.41,17.37-16.33a5.5,5.5,0,0,1,7.45,0,4.75,4.75,0,0,1,0,7l-21.09,19.84A5.42,5.42,0,0,1,1081.19,519.87Z" transform="translate(-175.95 -150.06)"/><path class="cls-2" d="M594.16,320H598l0,11.2a10.55,10.55,0,0,1-.42,3.38,4.82,4.82,0,0,1-2,2.48,7.14,7.14,0,0,1-3.89.94,6,6,0,0,1-4.35-1.47,5.75,5.75,0,0,1-1.53-4.3l3.64-.39a4.36,4.36,0,0,0,.48,2.15,2.09,2.09,0,0,0,1.9,1,2.17,2.17,0,0,0,1.82-.69,5,5,0,0,0,.54-2.83Z" transform="translate(-175.95 -150.06)"/></svg>